<svg viewBox="0 0 29.7082 36.8957" fill="none" xmlns="http://www.w3.org/2000/svg" x="0" y="0"><path id="Vector_12" d="M0.0041,31.2567v-2.175h3.97v-14.8099c0,-2.6246 0.79,-4.9486 2.39,-6.972c1.59,-2.0235 3.67,-3.2821 6.23,-3.7761v-1.3711c0,-0.6374 0.22,-1.1556 0.65,-1.5544c0.44,-0.3988 0.97,-0.5982 1.61,-0.5982c0.64,0 1.17,0.1994 1.61,0.5982c0.43,0.3988 0.65,0.917 0.65,1.5544v1.3711c2.56,0.494 4.65,1.7526 6.25,3.7761c1.6,2.0234 2.4,4.3474 2.4,6.972v14.8099h3.94v2.175zM14.8541,36.8957c-0.92,0 -1.73,-0.335 -2.43,-1.006c-0.69,-0.671 -1.03,-1.49 -1.03,-2.459h6.92c0,0.969 -0.33,1.788 -1,2.459c-0.67,0.671 -1.49,1.006 -2.46,1.006zM6.1441,29.0817h17.45v-14.8099c0,-2.4376 -0.84,-4.5085 -2.53,-6.2126c-1.68,-1.7041 -3.74,-2.5562 -6.18,-2.5562c-2.44,0 -4.5,0.8521 -6.2,2.5562c-1.69,1.7041 -2.54,3.775 -2.54,6.2126z" fill="currentColor"/></svg>