<svg viewBox="0 0 16 16" fill="none" xmlns="http://www.w3.org/2000/svg" x="0" y="0"><defs><clipPath id="clip10_140_6593">
<rect width="16" height="16" fill="white" transform="translate(0, 0.0003000000001520675)"/>
</clipPath></defs><g id="qlementine-icons:money-16_2" clip-path="url(#clip10_140_6593)">
<path id="Vector_155" fill-rule="evenodd" clip-rule="evenodd" d="M11.5,14.0003c2.49,0 4.5,-1 4.5,-2.5v-9.5c0,-1 -2,-2 -4.5,-2c-2.5,0 -4.5,1 -4.5,2v3.5c1.17,0.49 2.17,1.31 2.88,2.35c0.49,0.1 1.03,0.15 1.62,0.15c1.31,0 2.4,-0.26 3.18,-0.69c0.1107,-0.06 0.2185,-0.12 0.323,-0.2v1.38c0,0.24 -0.187,0.6 -0.802,0.94c-0.596,0.33 -1.51,0.56 -2.7,0.56c-0.238,0 -0.4647,0 -0.68,-0.02c0.08,0.33 0.1333,0.66 0.16,1.01c0.1687,0.01 0.342,0.01 0.52,0.01c1.31,0 2.4,-0.26 3.18,-0.68c0.1107,-0.07 0.2185,-0.13 0.323,-0.2v1.38c0,0.23 -0.149,0.58 -0.791,0.93c-0.632,0.34 -1.58,0.57 -2.71,0.57c-0.23,0 -0.4527,-0.01 -0.668,-0.03c-0.0769,0.33 -0.1802,0.66 -0.309,0.97c0.3147,0.04 0.64,0.06 0.976,0.06zM14.2,6.4403c0.615,-0.34 0.802,-0.7 0.802,-0.94v-1.38c-0.1033,0.07 -0.211,0.14 -0.323,0.2c-0.778,0.43 -1.87,0.69 -3.18,0.69c-1.31,0 -2.4,-0.26 -3.18,-0.69c-0.1107,-0.06 -0.2185,-0.13 -0.323,-0.2v1.38c0,0.24 0.187,0.6 0.802,0.94c0.596,0.32 1.51,0.56 2.7,0.56c1.19,0 2.1,-0.24 2.7,-0.56zM8,2.5003c0,-0.29 0.125,-0.57 0.358,-0.73c0.127,-0.1 0.265,-0.19 0.374,-0.24c0.273,-0.12 1.64,-0.53 2.77,-0.53c1.13,0 2.11,0.23 2.77,0.53c0.124,0.06 0.261,0.15 0.382,0.24c0.231,0.16 0.35,0.44 0.35,0.72v0.01c0,0.23 -0.187,0.6 -0.802,0.93c-0.596,0.33 -1.51,0.57 -2.7,0.57c-1.19,0 -2.1,-0.24 -2.7,-0.57c-0.615,-0.33 -0.802,-0.7 -0.802,-0.93z" fill="currentColor"/>
<path id="Vector_156" fill-rule="evenodd" clip-rule="evenodd" d="M9,11.5003c0,2.49 -2.01,4.5 -4.5,4.5c-2.49,0 -4.5,-2.01 -4.5,-4.5c0,-2.49 2.01,-4.5 4.5,-4.5c2.49,0 4.5,2.01 4.5,4.5zM8,11.5003c0,1.93 -1.57,3.5 -3.5,3.5c-1.93,0 -3.5,-1.57 -3.5,-3.5c0,-1.93 1.57,-3.5 3.5,-3.5c1.93,0 3.5,1.57 3.5,3.5z" fill="currentColor"/>
</g></svg>