<svg viewBox="0 0 36.4166 32.8928" fill="none" xmlns="http://www.w3.org/2000/svg" x="0" y="0"><path id="Vector_13" d="M18.2083,32.8924l-1.52,-1.385c-3.29,-3.017 -6.01,-5.6134 -8.16,-7.7898c-2.15,-2.1764 -3.85,-4.1081 -5.12,-5.795c-1.27,-1.6869 -2.15,-3.2102 -2.65,-4.57c-0.51,-1.3597 -0.76,-2.723 -0.76,-4.09c0,-2.6288 0.89,-4.8298 2.66,-6.6029c1.77,-1.7731 3.97,-2.6597 6.57,-2.6597c1.79,0 3.44,0.4497 4.97,1.349c1.52,0.8994 2.86,2.2067 4.01,3.9219c1.29,-1.7864 2.68,-3.1115 4.16,-3.9753c1.48,-0.8637 3.09,-1.2956 4.82,-1.2956c2.6,0 4.8,0.8866 6.57,2.6597c1.77,1.7731 2.66,3.9741 2.66,6.6029c0,1.367 -0.25,2.7303 -0.76,4.09c-0.5,1.3598 -1.38,2.8818 -2.65,4.566c-1.26,1.6843 -2.97,3.616 -5.12,5.795c-2.14,2.1791 -4.87,4.7768 -8.16,7.7938zM18.2083,30.0104c3.19,-2.916 5.81,-5.4153 7.86,-7.498c2.06,-2.0826 3.7,-3.9049 4.91,-5.4667c1.21,-1.5618 2.06,-2.9503 2.54,-4.1655c0.48,-1.2152 0.72,-2.4188 0.72,-3.6107c0,-2.0515 -0.66,-3.7468 -1.99,-5.086c-1.33,-1.3392 -3.01,-2.0089 -5.05,-2.0089c-1.64,0 -3.14,0.4878 -4.51,1.4633c-1.37,0.9756 -2.57,2.4168 -3.59,4.3236h-1.81c-1.02,-1.8872 -2.21,-3.3235 -3.58,-4.3088c-1.37,-0.9854 -2.86,-1.4781 -4.49,-1.4781c-2.02,0 -3.7,0.6697 -5.04,2.0089c-1.34,1.3392 -2,3.0393 -2,5.1004c0,1.1899 0.24,2.3958 0.72,3.6175c0.49,1.2217 1.33,2.6174 2.54,4.1871c1.2,1.5697 2.84,3.3903 4.92,5.4618c2.07,2.0714 4.69,4.5581 7.85,7.4601z" fill="currentColor"/></svg>