<svg viewBox="0 0 39.35 39.97" fill="none" xmlns="http://www.w3.org/2000/svg" x="0" y="0"><defs><clipPath id="clip8_301_2075">
<rect width="39.35" height="39.97" fill="white" transform="translate(0, 0)"/>
</clipPath></defs><g id="icons_6" clip-path="url(#clip8_301_2075)">
<path id="Vector_170" d="M28.87,34.85c-0.47,-4 -3.11,-7.33 -6.74,-8.52c-0.66,2.75 -3.05,4.79 -5.9,4.79c-2.85,0 -5.24,-2.04 -5.9,-4.79c-3.63,1.19 -6.27,4.52 -6.74,8.52l-0.78,5.13h26.84z" fill="#3DAE2B"/>
<path id="Vector_171" d="M19.92,25.32c0,2.93 -2.64,5.31 -5.9,5.31c-3.26,0 -5.9,-2.38 -5.9,-5.31" stroke="#00524C" stroke-width="1.2" stroke-linejoin="round"/>
<path id="Vector_172" d="M3.69,25.21v-14.13c0.05,-3.31 1.62,-6.74 5.19,-7.27c0.9,-2.24 3.25,-3.21 5.62,-3.21c6.16,0 10.09,4.76 9.85,11.33v2.21" stroke="#00524C" stroke-width="1.2" stroke-linejoin="round"/>
<path id="Vector_173" d="M20.48,13.01l-0.88,4.16c-0.5,2.36 -2.35,4.27 -4.74,4.63c-3.06,0.46 -5.85,-1.53 -6.47,-4.46l-0.88,-4.13l0.6,-3.5c1.42,1.42 3.34,2.21 5.35,2.21h1.12c2,0 3.93,-0.8 5.35,-2.21l0.55,3.29z" stroke="#00524C" stroke-width="1.2" stroke-linejoin="round"/>
<path id="Vector_174" d="M16.97,20.78v2.39c0,0.88 0.54,1.65 1.33,1.9l1.55,0.49c3.67,1.17 6.34,4.52 6.81,8.55l0.78,5.13h-26.84l0.78,-5.13c0.47,-4.03 3.15,-7.38 6.81,-8.55l1.55,-0.49c0.79,-0.25 1.33,-1.02 1.33,-1.9v-2.39" stroke="#00524C" stroke-width="1.2" stroke-linejoin="round"/>
<path id="Vector_175" d="M34.87,15.85c-1.28,0 -2.43,0.56 -3.25,1.46c-0.82,-0.9 -1.97,-1.46 -3.25,-1.46c-2.48,0 -4.49,2.1 -4.49,4.69c0,5.99 7.73,9.38 7.73,9.38c0,0 7.73,-3.39 7.73,-9.38c0,-2.59 -2.01,-4.69 -4.49,-4.69z" fill="#3DAE2B"/>
<path id="Vector_176" d="M33.08,14.06c-1.28,0 -2.43,0.56 -3.25,1.46c-0.82,-0.9 -1.97,-1.46 -3.25,-1.46c-2.48,0 -4.49,2.1 -4.49,4.69c0,5.99 7.73,9.38 7.73,9.38c0,0 7.73,-3.39 7.73,-9.38c0,-2.59 -2.01,-4.69 -4.49,-4.69z" stroke="#00524C" stroke-width="1.2" stroke-linejoin="round"/>
</g></svg>