<svg viewBox="0 0 42.81 42.81" fill="none" xmlns="http://www.w3.org/2000/svg" x="0" y="0"><defs><clipPath id="clip6_301_2075">
<rect width="42.81" height="42.81" fill="white" transform="translate(0, 0)"/>
</clipPath></defs><g id="icons_4" clip-path="url(#clip6_301_2075)">
<g id="Group_14">
<path id="Vector_141" d="M31.73,15.5h-17.71v14.76h17.71z" fill="#3DAE2B"/>
<path id="Vector_142" d="M23.62,13.29v8.46l-2.22,-1.1l-2.21,1.1v-8.46" stroke="white" stroke-width="1.2" stroke-linecap="round" stroke-linejoin="round"/>
<path id="Vector_143" d="M30.26,14.02h-17.71v14.76h17.71z" stroke="#00524C" stroke-width="1.2" stroke-linejoin="round"/>
</g>
<path id="Vector_144" d="M18.55,1.73c-8.6,1.24 -15.42,7.98 -16.77,16.54" stroke="#00524C" stroke-width="1.2" stroke-linejoin="round"/>
<path id="Vector_145" d="M41.13,18.96c-1.12,-9.15 -8.46,-16.38 -17.67,-17.33" stroke="#00524C" stroke-width="1.2" stroke-linejoin="round"/>
<path id="Vector_146" d="M23.9,41.12c8.74,-1.09 15.71,-7.86 17.12,-16.49" stroke="#00524C" stroke-width="1.2" stroke-linejoin="round"/>
<path id="Vector_147" d="M1.77,24.49c1.33,8.55 8.12,15.3 16.69,16.57" stroke="#00524C" stroke-width="1.2" stroke-linejoin="round"/>
<path id="Vector_148" d="M21.77,38.38c9.173,0 16.61,-7.436 16.61,-16.61c0,-9.173 -7.437,-16.61 -16.61,-16.61c-9.173,0 -16.61,7.437 -16.61,16.61c0,9.174 7.437,16.61 16.61,16.61z" stroke="#00524C" stroke-width="1.2" stroke-linejoin="round"/>
<path id="Vector_149" d="M21.4,0v6.64" stroke="#00524C" stroke-width="1.2" stroke-linejoin="round"/>
<path id="Vector_150" d="M21.4,36.17v6.64" stroke="#00524C" stroke-width="1.2" stroke-linejoin="round"/>
<path id="Vector_151" d="M0,21.4h6.64" stroke="#00524C" stroke-width="1.2" stroke-linejoin="round"/>
<path id="Vector_152" d="M36.17,21.4h6.64" stroke="#00524C" stroke-width="1.2" stroke-linejoin="round"/>
</g></svg>