<svg viewBox="0 0 36.5 43.43" fill="none" xmlns="http://www.w3.org/2000/svg" x="0" y="0"><defs><clipPath id="clip7_301_2075">
<rect width="36.5" height="43.43" fill="white" transform="translate(0, 0)"/>
</clipPath></defs><g id="icons_5" clip-path="url(#clip7_301_2075)">
<path id="Vector_153" d="M25.82,28.73l-0.6,-0.19c-0.23,-0.08 -0.44,-0.2 -0.62,-0.35c-1.32,0.76 -3.11,1.22 -5.08,1.22c-1.97,0 -3.76,-0.47 -5.08,-1.22c-0.18,0.15 -0.39,0.28 -0.62,0.35l-0.6,0.19c-6.37,2.07 -10.68,8 -10.68,14.7h33.95c0,-6.7 -4.31,-12.63 -10.68,-14.7z" fill="#3DAE2B"/>
<path id="Vector_154" d="M21,41.95h-5.9l1.47,-9.59l-0.74,-2.22l2.22,-1.47l2.21,1.47l-0.73,2.22z" fill="white"/>
<path id="Vector_155" d="M12.88,26.44c2.95,2.21 7.38,2.21 10.33,0" stroke="#00524C" stroke-width="1.2" stroke-linejoin="round"/>
<path id="Vector_156" d="M11.41,27.91l2.21,3.7l4.43,-2.96" stroke="#00524C" stroke-width="1.2" stroke-linejoin="round"/>
<path id="Vector_157" d="M24.69,27.91l-2.21,3.7l-4.43,-2.96" stroke="#00524C" stroke-width="1.2" stroke-linejoin="round"/>
<path id="Vector_158" d="M25.43,13.15l-1.01,5.13c-0.33,3.42 -3.2,6.04 -6.64,6.04c-3.44,0 -6.32,-2.62 -6.64,-6.04l-0.47,-5.13" stroke="#00524C" stroke-width="1.2" stroke-linejoin="round"/>
<path id="Vector_159" d="M9.19,13.15c0,0 -2.92,-11.67 7.2,-12.51c5.03,-0.42 6.5,2.66 6.92,4.75" stroke="#00524C" stroke-width="1.2" stroke-linejoin="round"/>
<path id="Vector_160" d="M26.91,13.15c0,0 0.41,-4.45 -0.48,-7.1c-0.88,-2.65 -3.95,-3.2 -3.95,-3.2" stroke="#00524C" stroke-width="1.2" stroke-linejoin="round"/>
<path id="Vector_161" d="M10.67,13.9l1.65,-1.85c0.75,-0.71 1.75,-1.1 2.78,-1.1h1.48c2.35,0 4.64,-0.77 6.52,-2.2c0,0 1.7,3.29 2.34,4.41" stroke="#00524C" stroke-width="1.2" stroke-linejoin="round"/>
<path id="Vector_162" d="M24.96,13.17h1.63c0.55,0 0.98,0.5 0.89,1.05l-0.32,1.93c-0.14,0.84 -0.87,1.46 -1.72,1.46h-1.21" stroke="#00524C" stroke-width="1.2" stroke-linejoin="round"/>
<path id="Vector_163" d="M10.93,13.17h-1.58c-0.55,0 -0.98,0.5 -0.89,1.05l0.32,1.93c0.14,0.84 0.87,1.46 1.72,1.46h0.42" stroke="#00524C" stroke-width="1.2" stroke-linejoin="round"/>
<path id="Vector_164" d="M15.83,30.42l0.74,1.94h2.96l0.73,-2.22" stroke="#00524C" stroke-width="1.2" stroke-linejoin="round"/>
<path id="Vector_165" d="M16.57,32.34l-1.47,9.6" stroke="#00524C" stroke-width="1.2" stroke-linejoin="round"/>
<path id="Vector_166" d="M19.53,32.34l1.47,9.6" stroke="#00524C" stroke-width="1.2" stroke-linejoin="round"/>
<path id="Vector_167" d="M7.24,39v2.95" stroke="#00524C" stroke-width="1.2" stroke-linejoin="round"/>
<path id="Vector_168" d="M27.17,39v2.95" stroke="#00524C" stroke-width="1.2" stroke-linejoin="round"/>
<path id="Vector_169" d="M22,22.76v2.54c0,0.8 0.51,1.5 1.27,1.75l0.6,0.19c6.37,2.07 10.68,8 10.68,14.7h-33.95c0,-6.7 4.31,-12.63 10.68,-14.7l0.6,-0.19c0.76,-0.25 1.27,-0.95 1.27,-1.75v-2.54" stroke="#00524C" stroke-width="1.2" stroke-linejoin="round"/>
</g></svg>