<svg viewBox="0 0 33.6 34.2" fill="none" xmlns="http://www.w3.org/2000/svg" x="0" y="0"><defs><clipPath id="clip3_301_2075">
<rect width="33.6" height="34.2" fill="white" transform="translate(0, 0)"/>
</clipPath></defs><g id="icons" clip-path="url(#clip3_301_2075)">
<path id="Vector_102" d="M33.6,11.83h-30.89v9.83h30.89z" fill="#3DAE2B"/>
<path id="Vector_103" d="M31.49,9.03h-30.89v24.57h30.89z" stroke="#00524C" stroke-width="1.2" stroke-linejoin="round"/>
<path id="Vector_104" d="M2.85,3.41h26.39c1.24,0 2.25,1.01 2.25,2.25v3.37h-30.89v-3.37c0,-1.24 1.01,-2.25 2.25,-2.25z" stroke="#00524C" stroke-width="1.2" stroke-linejoin="round"/>
<path id="Vector_105" d="M9.72,14.64h-4.21v4.21h4.21z" stroke="white" stroke-linecap="round" stroke-linejoin="round"/>
<path id="Vector_106" d="M18.85,14.64h-4.21v4.21h4.21z" stroke="white" stroke-linecap="round" stroke-linejoin="round"/>
<path id="Vector_107" d="M27.98,14.64h-4.21v4.21h4.21z" stroke="white" stroke-linecap="round" stroke-linejoin="round"/>
<path id="Vector_108" d="M9.72,24.47h-4.21v4.21h4.21z" stroke="#00524C" stroke-width="1.2" stroke-linejoin="round"/>
<path id="Vector_109" d="M18.85,24.47h-4.21v4.21h4.21z" stroke="#00524C" stroke-width="1.2" stroke-linejoin="round"/>
<path id="Vector_110" d="M27.98,24.47h-4.21v4.21h4.21z" stroke="#00524C" stroke-width="1.2" stroke-linejoin="round"/>
<path id="Vector_111" d="M9.73,6.22h-1.4c-0.78,0 -1.4,-0.63 -1.4,-1.4v-2.81c0,-0.78 0.63,-1.4 1.4,-1.4c0.77,0 1.4,0.63 1.4,1.4v0.7" stroke="#00524C" stroke-width="1.2" stroke-linejoin="round"/>
<path id="Vector_112" d="M17.45,6.22h-1.4c-0.78,0 -1.4,-0.63 -1.4,-1.4v-2.81c0,-0.78 0.63,-1.4 1.4,-1.4c0.77,0 1.4,0.63 1.4,1.4v0.7" stroke="#00524C" stroke-width="1.2" stroke-linejoin="round"/>
<path id="Vector_113" d="M25.17,6.22h-1.4c-0.78,0 -1.4,-0.63 -1.4,-1.4v-2.81c0,-0.78 0.63,-1.4 1.4,-1.4c0.77,0 1.4,0.63 1.4,1.4v0.7" stroke="#00524C" stroke-width="1.2" stroke-linejoin="round"/>
</g></svg>