<svg viewBox="0 0 39.21 41.34" fill="none" xmlns="http://www.w3.org/2000/svg" x="0" y="0"><defs><clipPath id="clip5_301_2075">
<rect width="39.21" height="41.34" fill="white" transform="translate(0, 0)"/>
</clipPath></defs><g id="icons_3" clip-path="url(#clip5_301_2075)">
<g id="Group_12">
<path id="Vector_128" d="M4.67,30.46h-3.39v8.82h3.39z" fill="#3DAE2B"/>
<path id="Vector_129" d="M24.58,34.03l8.35,-1.16c1.13,-0.16 2.13,0.74 2.09,1.89c-0.02,0.42 -0.31,0.78 -0.71,0.92l-14.03,4.9c-0.54,0.16 -1.1,0.2 -1.65,0.11l-13.76,-2.09h-0.19" stroke="#262728" stroke-width="1.2" stroke-linejoin="round"/>
<path id="Vector_130" d="M15.53,34.54h7.93c0.55,0 1.07,-0.44 1.11,-0.99c0.12,-1.68 -1.21,-3.09 -2.87,-3.09h-4.35c-1.6,0 -2.72,-0.39 -4.05,-1.06c-1.33,-0.67 -2.76,-1.04 -5.01,-0.97c-2.37,0.07 -3.73,1.7 -4.41,1.7" stroke="#262728" stroke-width="1.2" stroke-linejoin="round"/>
<path id="Vector_131" d="M3.99,28.43h-3.39v10.86h3.39z" stroke="#262728" stroke-width="1.2" stroke-linejoin="round"/>
</g>
<g id="Group_13">
<path id="Vector_132" d="M21.64,0.6v2.04h-3.96c0,1.32 0.9,3.19 1.34,4.07h4.25c1.18,-1.44 1.9,-3.75 2.12,-6.11h-3.76z" fill="#3DAE2B"/>
<path id="Vector_133" d="M24.25,26.01c-0.43,-0.62 -0.6,-1.27 -0.68,-2.01c-0.13,-1.2 -0.08,-2.5 0.31,-3.65c0.39,-1.15 1.05,-2.15 1.76,-3.13c0.59,-0.81 1.29,-1.43 2.17,-1.81c-0.37,-0.66 -0.77,-1.31 -1.13,-1.98c-0.83,-1.54 -1.58,-3.15 -2.7,-4.5l-4.85,0.41c-4.56,5.03 -8.21,10.77 -5.49,13.94c-1.36,2.27 -0.45,3.63 3.18,3.18c1.98,0.5 4.05,0.54 6.08,0.48c0.66,-0.02 1.33,-0.03 2,-0.05c-0.21,-0.3 -0.44,-0.58 -0.65,-0.88z" fill="#3DAE2B"/>
<path id="Vector_134" d="M28.03,15.13c-1.26,-2.14 -3.01,-4.36 -4.83,-6.37" stroke="#262728" stroke-width="1.2" stroke-linejoin="round"/>
<path id="Vector_135" d="M14.67,11.37c-3.67,4.48 -6.1,9.16 -3.74,11.92c-1.36,2.27 -0.45,3.63 3.18,3.18c1.98,0.5 4.05,0.54 6.08,0.48c1.21,-0.03 2.47,-0.03 3.71,-0.15" stroke="#262728" stroke-width="1.2" stroke-linejoin="round"/>
<path id="Vector_136" d="M16.87,6.84c-0.45,-0.91 -1.38,-2.84 -1.38,-4.2h4.12" stroke="#262728" stroke-width="1.2" stroke-linejoin="round"/>
<path id="Vector_137" d="M19.6,4.67v-4.07h5.74c-0.22,2.32 -0.93,4.6 -2.09,6.02" stroke="#262728" stroke-width="1.2" stroke-linejoin="round"/>
<path id="Vector_138" d="M22.99,6.71h-6.1c-0.751,0 -1.36,0.607 -1.36,1.355c0,0.748 0.609,1.355 1.36,1.355h6.1c0.751,0 1.36,-0.607 1.36,-1.355c0,-0.748 -0.609,-1.355 -1.36,-1.355z" stroke="#262728" stroke-width="1.2" stroke-linejoin="round"/>
</g>
<path id="Vector_139" d="M30.8,30.47c4.313,0 7.81,-3.497 7.81,-7.81c0,-4.313 -3.497,-7.81 -7.81,-7.81c-4.313,0 -7.81,3.497 -7.81,7.81c0,4.313 3.497,7.81 7.81,7.81z" stroke="#262728" stroke-width="1.2" stroke-linejoin="round"/>
<path id="Vector_140" d="M28.68,22.54c-0.42,0 -0.8,-0.11 -1.15,-0.32c-0.34,-0.21 -0.62,-0.49 -0.82,-0.83c-0.21,-0.34 -0.31,-0.72 -0.31,-1.12c0,-0.4 0.1,-0.79 0.31,-1.13c0.21,-0.34 0.48,-0.62 0.82,-0.82c0.34,-0.21 0.73,-0.31 1.15,-0.31c0.42,0 0.79,0.1 1.13,0.31c0.34,0.21 0.62,0.48 0.82,0.82c0.2,0.34 0.3,0.72 0.3,1.13c0,0.41 -0.1,0.79 -0.3,1.13c-0.2,0.34 -0.48,0.62 -0.82,0.82c-0.34,0.21 -0.72,0.32 -1.13,0.32zM27.93,26.95c-0.15,0 -0.28,-0.05 -0.38,-0.15c-0.1,-0.1 -0.15,-0.23 -0.15,-0.37c0,-0.14 0.04,-0.26 0.13,-0.36l6.13,-7.86c0.06,-0.07 0.13,-0.12 0.2,-0.15c0.07,-0.03 0.15,-0.05 0.22,-0.05c0.15,0 0.28,0.05 0.38,0.15c0.1,0.1 0.16,0.23 0.16,0.38c0,0.11 -0.04,0.22 -0.11,0.31l-6.17,7.93c-0.11,0.11 -0.24,0.17 -0.4,0.17zM28.68,21.48c0.22,0 0.42,-0.06 0.61,-0.17c0.18,-0.11 0.33,-0.26 0.44,-0.44c0.11,-0.18 0.16,-0.39 0.16,-0.61c0,-0.22 -0.06,-0.42 -0.17,-0.61c-0.11,-0.18 -0.26,-0.33 -0.44,-0.44c-0.18,-0.11 -0.38,-0.17 -0.6,-0.17c-0.22,0 -0.43,0.06 -0.61,0.17c-0.19,0.11 -0.34,0.26 -0.45,0.44c-0.11,0.18 -0.17,0.39 -0.17,0.61c0,0.22 0.06,0.41 0.17,0.6c0.11,0.19 0.26,0.34 0.45,0.45c0.19,0.11 0.39,0.17 0.61,0.17zM33.32,26.95c-0.41,0 -0.78,-0.1 -1.12,-0.31c-0.34,-0.21 -0.62,-0.48 -0.82,-0.82c-0.21,-0.34 -0.31,-0.72 -0.31,-1.13c0,-0.41 0.1,-0.8 0.31,-1.14c0.21,-0.34 0.48,-0.61 0.82,-0.82c0.34,-0.21 0.72,-0.31 1.14,-0.31c0.42,0 0.79,0.1 1.13,0.3c0.34,0.2 0.62,0.47 0.82,0.81c0.21,0.34 0.31,0.72 0.31,1.14c0,0.42 -0.1,0.8 -0.31,1.14c-0.21,0.34 -0.48,0.61 -0.82,0.82c-0.34,0.21 -0.73,0.31 -1.15,0.31zM33.33,25.89c0.22,0 0.42,-0.06 0.61,-0.17c0.18,-0.11 0.33,-0.26 0.44,-0.44c0.11,-0.18 0.17,-0.39 0.17,-0.61c0,-0.22 -0.06,-0.41 -0.17,-0.6c-0.11,-0.18 -0.26,-0.33 -0.45,-0.44c-0.19,-0.11 -0.39,-0.17 -0.6,-0.17c-0.21,0 -0.43,0.05 -0.61,0.16c-0.19,0.11 -0.33,0.25 -0.44,0.44c-0.11,0.19 -0.16,0.39 -0.16,0.61c0,0.22 0.05,0.41 0.16,0.6c0.11,0.18 0.25,0.33 0.44,0.44c0.19,0.11 0.39,0.17 0.61,0.17z" fill="#3DAE2B"/>
</g></svg>