<svg viewBox="0 0 39.86 39.12" fill="none" xmlns="http://www.w3.org/2000/svg" x="0" y="0"><defs><clipPath id="clip4_301_2075">
<rect width="39.86" height="39.12" fill="white" transform="translate(0.00009999999997489795, 0)"/>
</clipPath></defs><g id="icons_2" clip-path="url(#clip4_301_2075)">
<path id="Vector_114" d="M16.2301,22.14h-5.9v11.07h5.9z" fill="#3DAE2B"/>
<path id="Vector_115" d="M26.5701,16.98h-5.9v16.24h5.9z" fill="#3DAE2B"/>
<path id="Vector_116" d="M36.9001,11.07h-5.9v22.14h5.9z" fill="#3DAE2B"/>
<path id="Vector_117" d="M2.9501,0v39.12" stroke="#00524C" stroke-width="1.2" stroke-linejoin="round"/>
<path id="Vector_118" d="M39.8601,35.43h-39.86" stroke="#00524C" stroke-width="1.2" stroke-linejoin="round"/>
<path id="Vector_119" d="M0.0001,10.33h2.95" stroke="#00524C" stroke-width="1.2" stroke-linejoin="round"/>
<path id="Vector_120" d="M0.0001,19.19h2.95" stroke="#00524C" stroke-width="1.2" stroke-linejoin="round"/>
<path id="Vector_121" d="M0.0001,27.31h2.95" stroke="#00524C" stroke-width="1.2" stroke-linejoin="round"/>
<path id="Vector_122" d="M11.8101,39.12v-2.95" stroke="#00524C" stroke-width="1.2" stroke-linejoin="round"/>
<path id="Vector_123" d="M19.9301,39.12v-2.95" stroke="#00524C" stroke-width="1.2" stroke-linejoin="round"/>
<path id="Vector_124" d="M28.7801,39.12v-2.95" stroke="#00524C" stroke-width="1.2" stroke-linejoin="round"/>
<path id="Vector_125" d="M14.0201,31v-11.07h-5.9v11.07" stroke="#00524C" stroke-width="1.2" stroke-linejoin="round"/>
<path id="Vector_126" d="M24.3601,31v-16.24h-5.91v16.24" stroke="#00524C" stroke-width="1.2" stroke-linejoin="round"/>
<path id="Vector_127" d="M34.6901,31v-22.14h-5.91v22.14" stroke="#00524C" stroke-width="1.2" stroke-linejoin="round"/>
</g></svg>