<svg viewBox="0 0 36.65 35.91" fill="none" xmlns="http://www.w3.org/2000/svg" x="0" y="0"><defs><clipPath id="clip10_301_2075">
<rect width="36.65" height="35.91" fill="white" transform="translate(0.005000000000109139, 0)"/>
</clipPath></defs><g id="icons_8" clip-path="url(#clip10_301_2075)">
<path id="Vector_188" d="M20.705,18.64c4.99,0 9.02,-4.038 9.02,-9.02c0,-4.982 -4.03,-9.02 -9.02,-9.02c-4.98,0 -9.02,4.038 -9.02,9.02c0,4.982 4.04,9.02 9.02,9.02z" fill="#3DAE2B"/>
<path id="Vector_189" d="M16.385,5.8l-0.23,7.5l6.18,-4z" fill="white"/>
<path id="Vector_190" d="M18.395,18.64c4.98,0 9.02,-4.038 9.02,-9.02c0,-4.982 -4.04,-9.02 -9.02,-9.02c-4.99,0 -9.02,4.038 -9.02,9.02c0,4.982 4.03,9.02 9.02,9.02z" stroke="#262728" stroke-width="1.2" stroke-linejoin="round"/>
<path id="Vector_191" d="M36.055,24.67h-33.32v2.84h33.32z" fill="#3DAE2B"/>
<path id="Vector_192" d="M22.705,35.31h-4.49l-1.3,-7.8h7.09z" fill="#3DAE2B"/>
<path id="Vector_193" d="M0.605,24.67h35.45" stroke="#262728" stroke-width="1.2" stroke-linejoin="round"/>
<path id="Vector_194" d="M6.375,6.24h-5.77v21.27h35.45v-21.27h-5.77" stroke="#262728" stroke-width="1.2" stroke-linejoin="round"/>
<path id="Vector_195" d="M14.795,27.08l1.39,8.47" stroke="#262728" stroke-width="1.2" stroke-linejoin="round"/>
<path id="Vector_196" d="M21.855,27.08l-1.38,8.47" stroke="#262728" stroke-width="1.2" stroke-linejoin="round"/>
<path id="Vector_197" d="M10.535,35.31h15.59" stroke="#262728" stroke-width="1.2" stroke-linejoin="round"/>
<path id="Vector_198" d="M4.725,11.06h4.96" stroke="#3DAE2B" stroke-width="1.2" stroke-linejoin="round"/>
<path id="Vector_199" d="M4.725,18.15h4.96" stroke="#3DAE2B" stroke-width="1.2" stroke-linejoin="round"/>
<path id="Vector_200" d="M4.725,14.6h8.51" stroke="#3DAE2B" stroke-width="1.2" stroke-linejoin="round"/>
</g></svg>