<svg viewBox="0 0 41.06 38.84" fill="none" xmlns="http://www.w3.org/2000/svg" x="0" y="0"><defs><clipPath id="clip11_301_2075">
<rect width="41.06" height="38.84" fill="white" transform="translate(0, 0)"/>
</clipPath></defs><g id="icons_9" clip-path="url(#clip11_301_2075)">
<g id="Group_15">
<path id="Vector_201" d="M18.31,6.08v-5.48h18.46v37.64h-9.6" stroke="#00524C" stroke-width="1.2" stroke-linejoin="round"/>
<path id="Vector_202" d="M32.05,4.29h-9.03c0,1.38 -1.12,2.5 -2.5,2.5v3.01c0.95,0.46 1.85,1.09 2.64,1.78c0.57,0.5 1.15,1.14 1.43,1.88c0.91,-0.36 1.9,-0.57 2.94,-0.57c3.06,0 5.7,1.71 7.01,4.2v-10.3c-1.38,0 -2.5,-1.12 -2.5,-2.5z" fill="#3DAE2B"/>
<path id="Vector_203" d="M27.54,25.97c-1.56,0 -3.01,-0.45 -4.23,-1.21c-0.35,0.45 -0.74,0.87 -1.09,1.3c-0.47,0.58 -1.02,1.15 -1.69,1.5v1.09h6.2c0.7,0 1.22,0.6 1.25,1.3c0,0.15 -0.02,0.3 -0.07,0.43v4.17h4.15c0,-1.38 1.12,-2.5 2.5,-2.5v-10.28c-1.31,2.49 -3.95,4.2 -7.01,4.2z" fill="#3DAE2B"/>
</g>
<g id="Group_16">
<path id="Vector_204" d="M9.46,28.65v4.43" stroke="#00524C" stroke-width="1.2" stroke-linejoin="round"/>
<path id="Vector_205" d="M14.62,28.65v4.43" stroke="#00524C" stroke-width="1.2" stroke-linejoin="round"/>
<path id="Vector_206" d="M19.05,28.65v4.43" stroke="#00524C" stroke-width="1.2" stroke-linejoin="round"/>
<path id="Vector_207" d="M24.22,28.65v4.43" stroke="#00524C" stroke-width="1.2" stroke-linejoin="round"/>
<path id="Vector_208" d="M5.77,33.08v5.16" stroke="#00524C" stroke-width="1.2" stroke-linejoin="round"/>
<path id="Vector_209" d="M10.93,33.08v5.16" stroke="#00524C" stroke-width="1.2" stroke-linejoin="round"/>
<path id="Vector_210" d="M15.36,33.08v5.16" stroke="#00524C" stroke-width="1.2" stroke-linejoin="round"/>
<path id="Vector_211" d="M20.53,33.08v5.16" stroke="#00524C" stroke-width="1.2" stroke-linejoin="round"/>
<path id="Vector_212" d="M2.05,33.08h21.45c0.8,0 1.45,0.65 1.45,1.45v2.26c0,0.8 -0.65,1.45 -1.45,1.45h-21.45c-0.8,0 -1.45,-0.65 -1.45,-1.45v-2.26c0,-0.8 0.65,-1.45 1.45,-1.45z" stroke="#00524C" stroke-width="1.2" stroke-linejoin="round"/>
<path id="Vector_213" d="M26.57,28.65h-21.68c-0.74,0 -1.34,0.6 -1.34,1.34v1.75c0,0.74 0.6,1.34 1.34,1.34h21.68c0.74,0 1.34,-0.6 1.34,-1.34v-1.75c0,-0.74 -0.6,-1.34 -1.34,-1.34z" stroke="#00524C" stroke-width="1.2" stroke-linejoin="round"/>
<path id="Vector_214" d="M15.73,28.64c5.5,0 9.96,-4.459 9.96,-9.96c0,-5.501 -4.46,-9.96 -9.96,-9.96c-5.5,0 -9.96,4.459 -9.96,9.96c0,5.501 4.46,9.96 9.96,9.96z" stroke="#00524C" stroke-width="1.2" stroke-linejoin="round"/>
<path id="Vector_215" d="M15.73,26.8c4.48,0 8.12,-3.635 8.12,-8.12c0,-4.484 -3.64,-8.12 -8.12,-8.12c-4.48,0 -8.12,3.636 -8.12,8.12c0,4.485 3.64,8.12 8.12,8.12z" fill="#3DAE2B"/>
<path id="Vector_216" d="M15.53,22.83c-0.44,0 -0.87,-0.07 -1.28,-0.21c-0.41,-0.14 -0.76,-0.34 -1.06,-0.6c-0.3,-0.26 -0.53,-0.56 -0.67,-0.89c-0.08,-0.17 -0.08,-0.33 0,-0.48c0.09,-0.15 0.22,-0.24 0.42,-0.28c0.04,0 0.08,-0.01 0.12,-0.01c0.1,0 0.2,0.03 0.3,0.08c0.14,0.07 0.24,0.19 0.31,0.33c0.08,0.16 0.2,0.31 0.38,0.45c0.18,0.14 0.4,0.25 0.66,0.34c0.26,0.09 0.53,0.13 0.81,0.13c0.32,0 0.61,-0.05 0.88,-0.15c0.26,-0.1 0.48,-0.24 0.64,-0.43c0.16,-0.18 0.23,-0.4 0.23,-0.67c0,-0.35 -0.13,-0.65 -0.4,-0.92c-0.27,-0.27 -0.72,-0.45 -1.35,-0.51c-0.86,-0.08 -1.55,-0.35 -2.05,-0.78c-0.5,-0.44 -0.76,-0.99 -0.76,-1.63c0,-0.47 0.13,-0.88 0.4,-1.22c0.26,-0.33 0.62,-0.58 1.07,-0.75c0.44,-0.17 0.94,-0.25 1.48,-0.25c0.42,0 0.8,0.06 1.12,0.18c0.32,0.12 0.6,0.29 0.84,0.5c0.24,0.21 0.45,0.47 0.62,0.76c0.1,0.17 0.15,0.33 0.13,0.49c-0.02,0.16 -0.1,0.29 -0.24,0.38c-0.09,0.06 -0.2,0.09 -0.3,0.09c-0.06,0 -0.12,-0.01 -0.19,-0.03c-0.17,-0.05 -0.3,-0.16 -0.39,-0.31c-0.1,-0.19 -0.23,-0.35 -0.38,-0.49c-0.15,-0.13 -0.33,-0.24 -0.53,-0.31c-0.2,-0.08 -0.44,-0.11 -0.72,-0.11c-0.51,0 -0.91,0.09 -1.23,0.27c-0.31,0.18 -0.47,0.46 -0.47,0.83c0,0.19 0.05,0.38 0.15,0.55c0.1,0.17 0.28,0.33 0.55,0.46c0.27,0.13 0.67,0.23 1.2,0.28c0.83,0.08 1.48,0.34 1.95,0.77c0.47,0.43 0.71,1.01 0.71,1.72c0,0.41 -0.08,0.77 -0.25,1.07c-0.17,0.3 -0.39,0.56 -0.67,0.76c-0.27,0.2 -0.59,0.35 -0.95,0.45c-0.35,0.1 -0.72,0.15 -1.09,0.15z" fill="white"/>
<path id="Vector_217" d="M15.36,14.62v-1.47" stroke="white" stroke-width="1.2" stroke-linejoin="round"/>
<path id="Vector_218" d="M15.36,24.22v-2.22" stroke="white" stroke-width="1.2" stroke-linejoin="round"/>
</g>
<path id="Vector_219" d="M36.77,37.5h3.69v-33.21" stroke="#00524C" stroke-width="1.2" stroke-linejoin="round"/>
</g></svg>