<svg viewBox="0 0 39.95 39.23" fill="none" xmlns="http://www.w3.org/2000/svg" x="0" y="0"><defs><clipPath id="clip9_301_2075">
<rect width="39.95" height="39.23" fill="white" transform="translate(0, 0)"/>
</clipPath></defs><g id="icons_7" clip-path="url(#clip9_301_2075)">
<path id="Vector_177" d="M20.69,28.22c0,-4.88 3.36,-8.96 7.89,-10.09v-10.35h-25.11v30.85h25.11v-0.32c-4.53,-1.13 -7.89,-5.21 -7.89,-10.09z" fill="#3DAE2B"/>
<path id="Vector_178" d="M28.58,15.67v-10.05h-6.45" stroke="#262728" stroke-width="1.2" stroke-linejoin="round"/>
<path id="Vector_179" d="M7.06,5.62h-6.46v33.01h20.81" stroke="#262728" stroke-width="1.2" stroke-linejoin="round"/>
<path id="Vector_180" d="M19.97,4.91h-10.76v3.59h10.76z" stroke="#262728" stroke-width="1.2" stroke-linejoin="round"/>
<path id="Vector_181" d="M18.54,3.25c0,-1.46 -1.18,-2.65 -2.65,-2.65h-2.6c-1.46,0 -2.65,1.18 -2.65,2.65" stroke="#3DAE2B" stroke-width="1.2" stroke-miterlimit="10"/>
<path id="Vector_182" d="M28.94,38.62c5.744,0 10.4,-4.656 10.4,-10.4c0,-5.744 -4.656,-10.4 -10.4,-10.4c-5.744,0 -10.4,4.656 -10.4,10.4c0,5.744 4.656,10.4 10.4,10.4z" stroke="#262728" stroke-width="1.2" stroke-linejoin="round"/>
<path id="Vector_183" d="M23.56,27.81l4.92,4.92l6.56,-9.02" stroke="#262728" stroke-width="1.2" stroke-linejoin="round"/>
<path id="Vector_184" d="M14.23,19.26h4.31" stroke="white" stroke-width="1.2" stroke-linecap="round" stroke-linejoin="round"/>
<path id="Vector_185" d="M14.23,15.67h10.05" stroke="white" stroke-width="1.2" stroke-linecap="round" stroke-linejoin="round"/>
<path id="Vector_186" d="M11.36,14.95h-5.02v5.02h5.02z" fill="white"/>
<path id="Vector_187" d="M11.36,25h-5.02v5.02h5.02z" fill="white"/>
</g></svg>