<svg viewBox="0 0 190 24" fill="none" xmlns="http://www.w3.org/2000/svg" x="0" y="0"><defs><clipPath id="clip1_140_6593">
<rect width="190" height="24" fill="white" transform="translate(0, 0)"/>
</clipPath></defs><g id="Layer_5" clip-path="url(#clip1_140_6593)">
<g id="Group">
<path id="Vector_6" d="M42.0746,6.3921h-3.6626v15.9645h3.6626z" fill="#00524C"/>
<path id="Vector_7" d="M57.6105,1.111c-3.388,0.9132 -6.486,2.5568 -8.7751,5.2962h3.6626l4.7614,12.5859l4.5784,-12.5859h4.0289l-5.7687,14.0469c5.2193,-2.4655 9.0498,-7.7464 9.3245,-20.4236c0,0 -6.6691,-0.1826 -11.7968,1.0958M45.4474,24.0001c0,0 0.7325,-1.0045 4.7614,-1.3697c1.5567,-0.1826 3.1133,-0.3653 4.6699,-0.6392l-6.3028,-15.3253c-3.1132,3.8351 -4.7614,9.4813 -3.1132,17.3342" fill="#3DAE2B"/>
<path id="Vector_8" d="M73.4362,15.0515v0.2739c0,2.6481 1.3735,5.0222 4.3036,5.0222c2.106,0 3.4792,-1.187 3.7542,-3.2872h3.571c-0.641,3.9264 -3.754,5.57 -7.4015,5.57c-5.1277,0 -7.7679,-3.1959 -7.7679,-8.0202c0,-4.8244 2.6554,-8.5682 7.951,-8.5682c5.6774,0 7.3104,4.1091 7.3104,9.116l-11.7055,-0.0913zM77.6482,8.3096c-2.6554,0 -3.9373,2.1002 -4.212,4.4743h7.9508c0.092,-2.2828 -1.099,-4.4743 -3.754,-4.4743" fill="#00524C"/>
<path id="Vector_9" d="M19.8394,22.3564v-11.4902c0,-1.1871 -0.1832,-3.5612 -1.0072,-4.4743h3.9373c0,0 0.7325,0.4566 0.7325,2.3741c0,0 1.0988,-2.7394 5.5856,-2.648c4.4867,0.0913 5.4024,3.4698 5.4024,5.6613v10.5771h-3.6627v-9.7552c0,-1.1871 -0.2747,-3.8352 -3.3879,-3.8352c-2.747,0 -3.7542,2.0089 -3.7542,7.0159v6.6506l-3.8458,-0.0913z" fill="#00524C"/>
<path id="Vector_10" d="M97.945,9.5878c-3.937,-0.3652 -5.677,0.1827 -5.677,5.844v6.8333h-3.754v-11.3989c0,-1.1871 -0.183,-3.5612 -1.007,-4.4743h3.937c0,0 0.733,0.4566 0.733,2.3741c0,0 1.282,-2.7394 5.768,-2.648z" fill="#00524C"/>
<path id="Vector_11" d="M10.9727,19.9825c0,0 0.1831,1.9175 0.641,2.3741h3.8457c0,0 -0.8241,-1.8263 -0.8241,-4.383v-11.5815h-3.7542v8.9334c0,1.0958 -0.2747,4.5656 -4.3952,4.5656c-2.7469,0 -2.8385,-3.3785 -2.8385,-4.2003v-9.2987h-3.6474v10.9423c0,1.461 0.7325,5.2048 6.1349,5.2048c3.4796,0 4.8531,-2.5567 4.8531,-2.5567" fill="#00524C"/>
<path id="Vector_12" d="M103.531,22.5392c-3.48,-0.2739 -5.677,-4.0177 -3.754,-7.2898c2.014,-3.4698 10.057,-2.922 10.057,-2.922c0,-2.1002 -0.275,-4.2004 -3.114,-4.2004c-2.838,0 -2.838,2.7394 -2.838,2.7394h-3.571c0,-2.1915 1.373,-4.9309 6.135,-4.9309c4.761,0 6.852,2.3742 6.852,6.0267c0,0.5479 0.092,4.6569 0.092,6.6506c0.091,1.8262 0.915,3.8351 0.915,3.8351h-3.662c-0.458,-0.3652 -0.733,-2.1915 -0.733,-2.1915c-0.916,1.5523 -2.93,2.5568 -6.394,2.2828M102.798,17.517c0,0.8218 0.275,2.922 3.297,2.922c4.212,0 3.754,-5.9353 3.754,-5.9353c-6.486,-0.3652 -7.035,2.1915 -7.035,3.0133" fill="#00524C"/>
</g>
<g id="Group_2">
<path id="Vector_13" d="M128.84,11.7336v2.648h-6.303v-7.1071h6.303v2.5567h1.374v-3.3785h2.106v8.7507h-2.106v-3.4698zM126.734,12.6467v-3.6525h-2.106v3.6525zM124.72,21.854v-5.9353h10.881v5.9353zM127.009,17.7602v2.3741h6.394v-2.3741zM133.418,6.0874h2.198v9.2074h-2.198z" fill="#0F524D"/>
<path id="Vector_14" d="M149.961,6.0874h2.29v16.0558h-2.29v-8.5682h-2.838v4.7483h-7.676v-10.9423h2.289v3.8351h3.113v-3.8351h2.289v4.383h2.839v-5.6614zM144.849,16.5731v-3.5612h-3.113v3.5612z" fill="#0F524D"/>
<path id="Vector_15" d="M155.639,18.3081h14.452v1.8263h-14.452zM169.633,13.6512l-1.007,1.9175c-1.374,-0.2739 -2.564,-0.8218 -3.571,-1.461c-1.008,-0.7305 -1.74,-1.6436 -2.29,-2.648c-0.549,1.0044 -1.281,1.9175 -2.289,2.648c-1.007,0.7305 -2.197,1.1871 -3.479,1.461l-1.007,-1.9175c1.739,-0.274 3.113,-1.0045 4.12,-2.0089c1.007,-1.0958 1.557,-2.1915 1.557,-3.3786v-1.187h2.472v1.187c0,1.2784 0.458,2.3742 1.465,3.4699c0.916,0.9131 2.289,1.6436 4.029,1.9176z" fill="#0F524D"/>
<path id="Vector_16" d="M180.88,12.6468h6.135v1.8262h-14.544v-1.8262h6.044v-1.0045h-4.304v-5.0222h10.79v5.0222h-4.304v1.0045zM176.485,19.3126v0.9131h9.141v1.7349h-11.43v-4.2003h8.775v-0.8219h-8.775v-1.6436h11.064v4.1091h-8.775zM176.485,8.3551v1.5523h6.303v-1.5523z" fill="#0F524D"/>
</g>
</g></svg>