<svg viewBox="0 0 167 69" fill="none" xmlns="http://www.w3.org/2000/svg" x="0" y="0"><g id="Layer_5">
<g id="Group">
<path id="Vector" d="M58.741,12.1689h-4.678v20.3912h4.678z" fill="#00524C"/>
<path id="Vector_2" d="M78.585,5.4239c-4.328,1.1663 -8.285,3.2657 -11.209,6.7646h4.679l6.081,16.0758l5.848,-16.0758h5.146l-7.368,17.9419c6.667,-3.149 11.559,-9.8943 11.91,-26.0867c0,0 -8.518,-0.2332 -15.068,1.3996M63.049,34.6596c0,0 0.936,-1.2829 6.082,-1.7494c1.988,-0.2333 3.976,-0.4666 5.965,-0.8165l-8.051,-19.5747c-3.976,4.8985 -6.082,12.1103 -3.976,22.1406" fill="#3DAE2B"/>
<path id="Vector_3" d="M98.799,23.2299v0.3498c0,3.3824 1.754,6.4148 5.497,6.4148c2.69,0 4.444,-1.5162 4.795,-4.1987h4.561c-0.819,5.0151 -4.795,7.1145 -9.454,7.1145c-6.549,0 -9.922,-4.0821 -9.922,-10.2442c0,-6.162 3.392,-10.9439 10.156,-10.9439c7.251,0 9.337,5.2484 9.337,11.6437l-14.951,-0.1166zM104.179,14.6185c-3.392,0 -5.029,2.6826 -5.38,5.715h10.155c0.117,-2.9158 -1.403,-5.715 -4.795,-5.715" fill="#00524C"/>
<path id="Vector_4" d="M30.34,32.5603v-14.6762c0,-1.5162 -0.233,-4.5486 -1.286,-5.7149h5.029c0,0 0.936,0.5831 0.936,3.0324c0,0 1.403,-3.499 7.134,-3.3823c5.731,0.1166 6.9,4.432 6.9,7.2311v13.5099h-4.678v-12.4602c0,-1.5162 -0.351,-4.8985 -4.327,-4.8985c-3.509,0 -4.795,2.5659 -4.795,8.9612v8.4947l-4.913,-0.1166z" fill="#00524C"/>
<path id="Vector_5" d="M130.104,16.2513c-5.029,-0.4666 -7.251,0.2332 -7.251,7.4644v8.728h-4.796v-14.5596c0,-1.5162 -0.234,-4.5486 -1.286,-5.7149h5.029c0,0 0.936,0.5831 0.936,3.0324c0,0 1.637,-3.499 7.368,-3.3823z" fill="#00524C"/>
<path id="Vector_6" d="M19.015,29.5277c0,0 0.234,2.4492 0.819,3.0324h4.912c0,0 -1.053,-2.3326 -1.053,-5.5983v-14.7929h-4.795v11.4105c0,1.3996 -0.351,5.8316 -5.614,5.8316c-3.508,0 -3.625,-4.3153 -3.625,-5.365v-11.8771h-4.659v13.9764c0,1.8662 0.936,6.6481 7.836,6.6481c4.444,0 6.199,-3.2657 6.199,-3.2657" fill="#00524C"/>
<path id="Vector_7" d="M137.238,32.7935c-4.444,-0.3499 -7.251,-5.1318 -4.795,-9.3111c2.573,-4.432 12.846,-3.7322 12.846,-3.7322c0,-2.6826 -0.351,-5.3651 -3.977,-5.3651c-3.625,0 -3.625,3.499 -3.625,3.499h-4.562c0,-2.7992 1.755,-6.2982 7.836,-6.2982c6.082,0 8.752,3.0325 8.752,7.6977c0,0.6998 0.117,5.9483 0.117,8.4947c0.117,2.3327 1.17,4.8986 1.17,4.8986h-4.678c-0.585,-0.4665 -0.936,-2.7992 -0.936,-2.7992c-1.169,1.9828 -3.742,3.2657 -8.167,2.9158M136.303,26.3788c0,1.0496 0.35,3.7322 4.21,3.7322c5.38,0 4.795,-7.5811 4.795,-7.5811c-8.284,-0.4665 -8.986,2.7992 -8.986,3.8489" fill="#00524C"/>
</g>
<g id="Group_2">
<path id="Vector_8" d="M45.05,53.053v3.382h-8.05v-9.077h8.05v3.265h1.755v-4.315h2.69v11.177h-2.69v-4.432zM42.36,54.219v-4.665h-2.69v4.665zM39.787,65.98v-7.581h13.899v7.581zM42.711,60.751v3.032h8.168v-3.032zM50.898,45.841h2.807v11.761h-2.807z" fill="#0F524D"/>
<path id="Vector_9" d="M72.028,45.841h2.924v20.508h-2.924v-10.944h-3.625v6.065h-9.805v-13.976h2.924v4.898h3.976v-4.898h2.924v5.598h3.626v-7.231zM65.498,59.235v-4.549h-3.976v4.549z" fill="#0F524D"/>
<path id="Vector_10" d="M79.28,61.45h18.459v2.333h-18.459zM97.154,55.502l-1.286,2.449c-1.755,-0.35 -3.275,-1.049 -4.561,-1.866c-1.287,-0.933 -2.223,-2.099 -2.924,-3.382c-0.702,1.283 -1.638,2.449 -2.924,3.382c-1.287,0.933 -2.807,1.516 -4.445,1.866l-1.286,-2.449c2.222,-0.35 3.976,-1.283 5.263,-2.566c1.286,-1.399 1.988,-2.799 1.988,-4.315v-1.517h3.158v1.517c0,1.633 0.585,3.032 1.871,4.432c1.17,1.166 2.924,2.099 5.146,2.449z" fill="#0F524D"/>
<path id="Vector_11" d="M111.52,54.22h7.837v2.332h-18.577v-2.332h7.719v-1.283h-5.497v-6.415h13.781v6.415h-5.496v1.283zM105.907,62.734v1.166h11.676v2.216h-14.6v-5.365h11.208v-1.05h-11.208v-2.099h14.132v5.248h-11.208zM105.907,48.738v1.983h8.05v-1.983z" fill="#0F524D"/>
</g>
</g></svg>