<svg viewBox="0 0 18.7291 23.2604" fill="none" xmlns="http://www.w3.org/2000/svg" x="0" y="0"><path id="Vector_2" d="M-0.0005,19.7051v-1.371h2.503v-9.3367c0,-1.6546 0.502,-3.1197 1.507,-4.3954c1.005,-1.2756 2.315,-2.0691 3.931,-2.3805v-0.8644c0,-0.4019 0.137,-0.7285 0.411,-0.98c0.274,-0.2514 0.612,-0.3771 1.013,-0.3771c0.401,0 0.739,0.1257 1.013,0.3771c0.274,0.2515 0.411,0.5781 0.411,0.98v0.8644c1.616,0.3114 2.93,1.1049 3.94,2.3805c1.011,1.2757 1.517,2.7408 1.517,4.3954v9.3367h2.484v1.371zM9.3645,23.2604c-0.582,0 -1.092,-0.2115 -1.529,-0.6344c-0.437,-0.4229 -0.655,-0.9395 -0.655,-1.5499h4.368c0,0.6104 -0.211,1.127 -0.634,1.5499c-0.423,0.4229 -0.94,0.6344 -1.55,0.6344zM3.8735,18.3341h11.001v-9.3367c0,-1.5367 -0.531,-2.8423 -1.593,-3.9166c-1.062,-1.0743 -2.362,-1.6115 -3.898,-1.6115c-1.537,0 -2.84,0.5372 -3.908,1.6115c-1.068,1.0743 -1.602,2.3799 -1.602,3.9166z" fill="currentColor"/></svg>