<svg viewBox="0 0 18 18" fill="none" xmlns="http://www.w3.org/2000/svg" x="0" y="0"><defs><clipPath id="clip2_301_2075">
<rect width="18" height="18" fill="white" transform="translate(0, 0)"/>
</clipPath></defs><g id="rotate-cw" clip-path="url(#clip2_301_2075)">
<path id="Vector_99" d="M17.25,3v4.5h-4.5" stroke="#A6A6A6" stroke-width="2" stroke-linecap="round" stroke-linejoin="round"/>
<path id="Vector_100" d="M15.37,11.25c-0.49,1.38 -1.41,2.564 -2.63,3.374c-1.22,0.81 -2.67,1.201 -4.13,1.116c-1.46,-0.086 -2.86,-0.644 -3.97,-1.59c-1.12,-0.946 -1.9,-2.23 -2.22,-3.657c-0.32,-1.428 -0.17,-2.922 0.43,-4.257c0.59,-1.335 1.61,-2.439 2.89,-3.146c1.29,-0.706 2.76,-0.977 4.21,-0.772c1.45,0.206 2.79,0.877 3.83,1.912l3.47,3.27" stroke="#A6A6A6" stroke-width="2" stroke-linecap="round" stroke-linejoin="round"/>
</g></svg>