<svg viewBox="0 0 21 21" fill="none" xmlns="http://www.w3.org/2000/svg" x="0" y="0"><path id="Vector" d="M19.786,21l-5.715,-5.7143c-0.714,0.6429 -1.571,1.1429 -2.5,1.4286c-0.928,0.3571 -1.928,0.5 -2.928,0.5c-2.429,0 -4.5,-0.8572 -6.143,-2.5c-1.643,-1.6429 -2.5,-3.6429 -2.5,-6.0714c0,-2.3572 0.857,-4.4286 2.5,-6.1429c1.643,-1.7143 3.714,-2.5 6.143,-2.5c2.428,0 4.428,0.8571 6.143,2.5c1.714,1.7143 2.5,3.7143 2.5,6.1429c0,1 -0.143,2 -0.5,2.9285c-0.357,0.9286 -0.857,1.7857 -1.5,2.5715l5.714,5.6428c-0.071,0 -1.214,1.2143 -1.214,1.2143zM8.643,15.6429c1.928,0 3.571,-0.7143 4.928,-2.0715c1.358,-1.3571 2,-3 2,-5c0,-1.9285 -0.642,-3.5714 -2,-5c-1.357,-1.3571 -3,-2.0714 -4.928,-2.0714c-1.929,0 -3.643,0.7143 -5,2.0714c-1.357,1.3572 -2.072,3 -2.072,5c0,1.9286 0.715,3.6429 2.072,5c1.357,1.4286 3,2.0715 5,2.0715z" fill="currentColor"/></svg>