<svg viewBox="0 0 32.745 33.2499" fill="none" xmlns="http://www.w3.org/2000/svg" x="0" y="0"><path id="Vector_14" d="M12.9025,33.25l-0.79,-5.26c-0.6,-0.204 -1.24,-0.5011 -1.94,-0.8903c-0.69,-0.3893 -1.28,-0.8016 -1.78,-1.2368l-4.9,2.2281l-3.49,-6.1824l4.42,-3.2543c-0.06,-0.3074 -0.1,-0.6428 -0.13,-1.0063c-0.02,-0.3634 -0.04,-0.6988 -0.04,-1.0062c0,-0.2962 0.02,-0.626 0.04,-0.9895c0.03,-0.3634 0.07,-0.7157 0.13,-1.0567l-4.42,-3.2711l3.49,-6.1317l4.88,2.1943c0.53,-0.4353 1.14,-0.8448 1.8,-1.2285c0.67,-0.3836 1.31,-0.6685 1.92,-0.8547l0.81,-5.3039h6.94l0.79,5.2769c0.64,0.2378 1.29,0.5329 1.93,0.8851c0.65,0.3523 1.23,0.7606 1.74,1.2251l4.96,-2.1943l3.48,6.1317l-4.49,3.2509c0.08,0.3478 0.13,0.6978 0.15,1.05c0.02,0.3523 0.03,0.6855 0.03,0.9996c0,0.3029 -0.01,0.6259 -0.03,0.9692c-0.03,0.3433 -0.08,0.7 -0.15,1.0702l4.48,3.2442l-3.5,6.1824l-4.93,-2.2449c-0.54,0.4576 -1.13,0.88 -1.76,1.267c-0.63,0.3871 -1.27,0.6739 -1.91,0.8599l-0.79,5.277zM16.3225,21.5552c1.37,0 2.54,-0.4785 3.49,-1.4353c0.96,-0.9569 1.44,-2.1219 1.44,-3.4949c0,-1.3731 -0.48,-2.5381 -1.44,-3.495c-0.95,-0.9568 -2.12,-1.4353 -3.49,-1.4353c-1.36,0 -2.52,0.4785 -3.49,1.4353c-0.96,0.9569 -1.44,2.1219 -1.44,3.495c0,1.373 0.48,2.538 1.44,3.4949c0.97,0.9568 2.13,1.4353 3.49,1.4353zM16.3225,19.5696c-0.81,0 -1.51,-0.2877 -2.08,-0.8632c-0.58,-0.5754 -0.87,-1.2693 -0.87,-2.0814c0,-0.8122 0.29,-1.5061 0.87,-2.0815c0.57,-0.5755 1.27,-0.8632 2.08,-0.8632c0.82,0 1.52,0.2877 2.09,0.8632c0.57,0.5754 0.85,1.2693 0.85,2.0815c0,0.8121 -0.28,1.506 -0.85,2.0814c-0.57,0.5755 -1.27,0.8632 -2.09,0.8632zM14.5025,31.264h3.73l0.63,-4.8828c0.93,-0.2333 1.79,-0.5811 2.6,-1.0433c0.8,-0.4622 1.57,-1.0489 2.3,-1.7601l4.57,1.9789l1.75,-3.0996l-4.04,-2.985c0.12,-0.5183 0.21,-1.0069 0.27,-1.4657c0.07,-0.4588 0.11,-0.9193 0.11,-1.3814c0,-0.4846 -0.03,-0.9507 -0.09,-1.3983c-0.06,-0.4476 -0.16,-0.9193 -0.29,-1.4152l4.08,-3.0187l-1.75,-3.0996l-4.62,1.9789c-0.62,-0.691 -1.36,-1.3002 -2.23,-1.8274c-0.87,-0.5273 -1.76,-0.8526 -2.68,-0.976l-0.6,-4.8832h-3.74l-0.58,4.8664c-0.97,0.1929 -1.86,0.5233 -2.68,0.9911c-0.82,0.4678 -1.58,1.0719 -2.28,1.8123l-4.59,-1.9621l-1.75,3.0996l4.05,2.9682c-0.13,0.4622 -0.23,0.9311 -0.3,1.4067c-0.06,0.4757 -0.1,0.967 -0.1,1.4741c0,0.4846 0.04,0.9591 0.1,1.4235c0.07,0.4645 0.16,0.9334 0.28,1.4068l-4.03,2.985l1.75,3.0996l4.57,-1.9621c0.7,0.7113 1.46,1.298 2.28,1.7601c0.83,0.4622 1.72,0.81 2.68,1.0433z" fill="currentColor"/></svg>