<svg viewBox="0 0 97 179" fill="none" xmlns="http://www.w3.org/2000/svg" x="0" y="0"><defs><clipPath id="clip1_301_2075">
<rect width="97" height="179" fill="white" transform="translate(0, 0)"/>
</clipPath></defs><g id="man" clip-path="url(#clip1_301_2075)">
<g id="Group_3">
<path id="Vector_19" d="M16.809,38.118c4.802,1.385 7.673,0.318 11.199,-1.487c3.78,-1.939 6.846,-4.924 10.208,-7.468" stroke="black" stroke-width="0.5" stroke-linecap="round" stroke-linejoin="round"/>
<g id="Group_4">
<path id="Vector_20" d="M61.288,76.718c-0.102,-0.092 -0.174,-0.195 -0.225,-0.318c-0.153,0.298 -0.378,0.544 -0.756,0.513c-0.449,-0.031 -0.613,-0.338 -0.735,-0.697c-0.062,0.082 -0.123,0.154 -0.195,0.205c-0.909,0.779 -1.461,-0.267 -1.573,-1.098c-0.256,0.308 -0.501,0.503 -0.695,0.513c-1.022,0.072 -0.92,-1.262 -0.715,-2.267c0.02,-0.123 0.051,-0.236 0.081,-0.349c-0.194,-0.153 -0.378,-0.318 -0.51,-0.502c-1.104,-1.57 2.064,-4.103 3.882,-5.18c0.522,-0.308 0.92,-0.688 1.257,-1.201c0.348,-0.523 1.145,-2.072 1.41,-2.646c0.726,-1.539 4.374,-13.633 4.374,-13.633l7.214,1.036c0,0 -8.819,15.684 -9.442,17.459c-0.214,0.595 -0.163,1.272 -0.225,1.888c-0.071,0.697 -0.122,1.436 -0.245,2.123c-0.112,0.595 -0.45,1.149 -0.685,1.703c-0.255,0.605 -1.093,3.426 -2.227,2.421z" fill="white"/>
<path id="Vector_21" d="M59.827,68.635l-3.393,2.985l0.368,1.313l-0.388,0.729l0.266,1.466l3.964,0.236" stroke="black" stroke-linecap="round" stroke-linejoin="round"/>
<path id="Vector_22" d="M62.504,75.99c0.276,-0.564 0.347,-1.826 0.225,-2.441c-0.286,-1.457 -1.206,-0.031 -1.431,0.666c-0.214,0.657 -0.552,1.96 0.072,2.493c1.154,0.985 1.931,-1.857 2.176,-2.472c0.225,-0.554 0.552,-1.118 0.644,-1.713c0.112,-0.698 0.143,-1.426 0.204,-2.134c0.051,-0.615 -0.01,-1.292 0.184,-1.897c1.226,-2.216 8.175,-14.946 9.534,-17.367" stroke="black" stroke-width="0.5" stroke-linecap="round" stroke-linejoin="round"/>
<path id="Vector_23" d="M59.551,75.98c0.153,0.431 0.286,0.913 0.838,0.933c0.592,0.021 0.787,-0.584 0.95,-1.056c0.266,-0.759 0.48,-1.631 0.409,-2.431c-0.051,-0.626 -0.378,-1.293 -1.042,-0.78c-0.777,0.595 -1.114,2.01 -1.155,3.344z" fill="white" stroke="black" stroke-linecap="round" stroke-linejoin="round"/>
<path id="Vector_24" d="M57.824,74.964c-0.031,0.821 0.572,2.411 1.625,1.477c0.572,-0.502 0.746,-1.672 0.899,-2.379c0.112,-0.534 0.48,-2.349 -0.562,-1.878c-0.889,0.4 -1.298,1.662 -1.952,2.791z" fill="white" stroke="black" stroke-linecap="round" stroke-linejoin="round"/>
<g id="Vector_25">
<path d="M56.639,72.697c-0.154,0.616 -0.91,3.334 0.531,3.211c0.899,-0.082 2.646,-3.888 1.666,-4.226c-0.726,-0.247 -1.921,2.42 -2.075,2.944" fill="white"/>
<path d="M56.639,72.697c-0.154,0.616 -0.91,3.334 0.531,3.211c0.899,-0.082 2.646,-3.888 1.666,-4.226c-0.726,-0.247 -1.921,2.42 -2.075,2.944" stroke="black" stroke-linecap="round" stroke-linejoin="round"/>
</g>
<g id="Vector_26">
<path d="M62.095,69.989c-0.378,0.667 -1.594,1.221 -2.34,1.416c-0.317,0.082 -0.664,0.102 -0.981,0.195c-0.47,0.133 -0.919,0.441 -1.41,0.513c0.715,0.051 1.339,0.759 1.574,1.384c0.122,0.318 0.225,1.098 -0.184,1.324c-0.296,0.164 -0.664,-0.318 -0.879,-0.524c-0.541,-0.523 -1.451,-0.851 -1.911,-1.466c-1.144,-1.539 1.972,-4.145 3.781,-5.263c0.991,-0.605 1.308,-1.426 1.686,-2.472c0.409,-1.128 0.838,-2.236 1.267,-3.354c0.307,-0.78 3.893,-10.874 4.21,-11.653" fill="white"/>
<path d="M62.095,69.989c-0.378,0.667 -1.594,1.221 -2.34,1.416c-0.317,0.082 -0.664,0.102 -0.981,0.195c-0.47,0.133 -0.919,0.441 -1.41,0.513c0.715,0.051 1.339,0.759 1.574,1.384c0.122,0.318 0.225,1.098 -0.184,1.324c-0.296,0.164 -0.664,-0.318 -0.879,-0.524c-0.541,-0.523 -1.451,-0.851 -1.911,-1.466c-1.144,-1.539 1.972,-4.145 3.781,-5.263c0.991,-0.605 1.308,-1.426 1.686,-2.472c0.409,-1.128 0.838,-2.236 1.267,-3.354c0.307,-0.78 3.893,-10.874 4.21,-11.653" stroke="black" stroke-width="0.5" stroke-linecap="round" stroke-linejoin="round"/>
</g>
</g>
<g id="Vector_27">
<path d="M40.177,44.765c2.933,1.775 7.194,2.585 10.709,3.119c4.046,0.615 9.411,1.241 13.151,2.903c-0.092,-0.041 -0.031,0.646 0,0.707c0.204,0.534 0.204,0.513 0.715,0.657c0.49,0.739 -3.474,11.325 -3.985,12.617c1.052,1.98 3.116,2.79 5.753,3.026c0,0 5.579,-9.57 8.562,-15.417c0.961,-1.878 0.757,-3.785 -0.654,-5.755c-0.715,-0.995 -5.752,-3.826 -6.815,-4.39c-4.241,-2.237 -7.418,-3.406 -15.583,-6.75" fill="white"/>
<path d="M40.177,44.765c2.933,1.775 7.194,2.585 10.709,3.119c4.046,0.615 9.411,1.241 13.151,2.903c-0.092,-0.041 -0.031,0.646 0,0.707c0.204,0.534 0.204,0.513 0.715,0.657c0.49,0.739 -3.474,11.325 -3.985,12.617c1.052,1.98 3.116,2.79 5.753,3.026c0,0 5.579,-9.57 8.562,-15.417c0.961,-1.878 0.756,-3.785 -0.654,-5.755c-0.715,-0.995 -5.752,-3.826 -6.815,-4.39c-4.241,-2.237 -7.418,-3.406 -15.583,-6.75" stroke="black" stroke-width="0.5" stroke-linecap="round" stroke-linejoin="round"/>
</g>
<path id="Vector_28" d="M65.774,51.607c0.93,-0.225 1.124,-0.625 1.992,-1.025" stroke="black" stroke-width="0.5" stroke-linecap="round" stroke-linejoin="round"/>
<path id="Vector_29" d="M65.13,50.52c1.471,-1.005 2.176,-2.031 3.719,-2.913" stroke="black" stroke-width="0.5" stroke-linecap="round" stroke-linejoin="round"/>
<g id="Vector_30">
<path d="M53.675,48.858c-0.562,-3.18 -1.931,-8.38 -3.576,-10.76c-2.401,-3.478 -5.794,-6.77 -6.611,-11.079c-0.582,-3.087 -0.797,-6.483 -0.817,-9.632c-2.31,0.8 -6.06,3.806 -8.369,4.616c0,0 2.013,8.525 -2.606,21.87" fill="white"/>
<path d="M53.675,48.858c-0.562,-3.18 -1.931,-8.38 -3.576,-10.76c-2.401,-3.478 -5.794,-6.77 -6.611,-11.079c-0.582,-3.087 -0.797,-6.483 -0.817,-9.632c-2.31,0.8 -6.06,3.806 -8.369,4.616c0,0 2.013,8.525 -2.606,21.87" stroke="black" stroke-width="0.5" stroke-linecap="round" stroke-linejoin="round"/>
</g>
<path id="Vector_31" d="M44.275,31.984c-2.83,2.369 -12.303,8.391 -12.303,8.391c-0.674,1.857 -1.144,3.723 -1.757,5.58c-1.042,3.129 -2.432,5.334 -1.942,8.606c0.92,6.186 3.188,12.125 5.447,17.962c1.41,3.642 4.189,8.483 4.189,8.483c1.635,0.677 4.445,1.919 6.581,1.99c5.292,0.195 5.456,-2.913 5.814,-7.355c0.735,-9.047 -0.021,-18.043 -0.705,-27.091c-0.174,-2.328 -0.062,-4.821 -0.44,-7.108c-0.521,-3.17 -3.964,-6.391 -4.874,-9.458z" fill="white" stroke="black" stroke-width="0.5" stroke-linecap="round" stroke-linejoin="round"/>
<g id="Vector_32">
<path d="M9.125,92.259c-4.241,2.349 -6.887,3.098 -6.601,7.919c0.143,2.349 7.847,35.093 7.786,36.652c-0.092,2.544 -2.575,6.165 -4.721,10.658c-2.503,5.231 4.527,2.226 6.284,0.41c1.554,-1.61 1.543,-3.262 2.667,-5.139c1.124,-1.877 3.199,-3.047 3.086,-5.457c-0.102,-2.093 -2.197,-3.201 -2.851,-5.119c-1.165,-3.426 -0.899,-12.012 -0.694,-15.582c0.163,-2.8 0.143,-5.539 -0.276,-8.268c-0.358,-2.318 -1.584,-4.616 -1.707,-6.893" fill="white"/>
<path d="M9.125,92.259c-4.241,2.349 -6.887,3.098 -6.601,7.919c0.143,2.349 7.847,35.093 7.786,36.652c-0.092,2.544 -2.575,6.165 -4.721,10.658c-2.503,5.231 4.527,2.226 6.284,0.41c1.554,-1.61 1.543,-3.262 2.667,-5.139c1.124,-1.877 3.199,-3.047 3.086,-5.457c-0.102,-2.093 -2.197,-3.201 -2.851,-5.119c-1.165,-3.426 -0.899,-12.012 -0.694,-15.582c0.163,-2.8 0.143,-5.539 -0.276,-8.268c-0.358,-2.318 -1.584,-4.616 -1.707,-6.893" stroke="black" stroke-width="0.5" stroke-linecap="round" stroke-linejoin="round"/>
</g>
<g id="Vector_33">
<path d="M48.945,100.825c-10.239,0.113 -23.41,-0.37 -33.577,-0.903c0.01,0.872 -0.031,1.785 -1.042,1.672c-0.46,1.785 0.756,6.339 0.899,8.124c0.572,6.801 -0.061,13.007 0.777,20.075c-3.066,1.877 -4.783,2.175 -8.165,1.775c0,0 -2.994,-15.541 -5.047,-25.112c-0.726,-3.364 -2.535,-8.227 -1.002,-11.53c1.431,-3.077 5.773,-4.328 8.778,-5.385c4.24,-1.487 8.726,-2.39 13.099,-3.529c4.077,-1.066 14.234,-5.016 14.234,-5.016c5.323,0.636 10.841,-0.943 16.226,-1.662" fill="#2AC426"/>
<path d="M48.945,100.825c-10.239,0.113 -23.41,-0.37 -33.577,-0.903c0.01,0.872 -0.031,1.785 -1.042,1.672c-0.46,1.785 0.756,6.339 0.899,8.124c0.572,6.801 -0.061,13.007 0.777,20.075c-3.066,1.877 -4.783,2.175 -8.165,1.775c0,0 -2.994,-15.541 -5.047,-25.112c-0.726,-3.364 -2.535,-8.227 -1.002,-11.53c1.431,-3.077 5.773,-4.328 8.778,-5.385c4.24,-1.487 8.726,-2.39 13.099,-3.529c4.077,-1.066 14.234,-5.016 14.234,-5.016c5.323,0.636 10.841,-0.943 16.226,-1.662" stroke="black" stroke-width="0.5" stroke-linecap="round" stroke-linejoin="round"/>
</g>
<path id="Vector_34" d="M45.143,97.819c-10.238,0.113 -22.786,0.431 -32.953,-0.103c0.01,0.872 -0.03,1.785 -1.042,1.672c-0.46,1.785 0.133,5.55 0.276,7.335c0.572,6.801 0.93,17.428 1.768,24.496" stroke="black" stroke-width="0.5" stroke-linecap="round" stroke-linejoin="round"/>
<g id="Vector_35">
<path d="M60.501,131.875c0.327,2.329 23.706,25.666 23.706,29.02c0,2.544 -2.084,6.349 -3.873,10.996c-2.084,5.416 4.69,1.857 6.295,-0.092c1.42,-1.723 1.277,-3.365 2.248,-5.334c0.97,-1.97 2.953,-3.293 2.646,-5.683c-0.266,-2.072 -2.279,-2.749 -3.627,-4.247c-3.025,-3.364 -9.769,-20.392 -16.594,-25.409" fill="white"/>
<path d="M60.501,131.875c0.327,2.329 23.706,25.666 23.706,29.02c0,2.544 -2.084,6.349 -3.873,10.996c-2.084,5.416 4.69,1.857 6.295,-0.092c1.42,-1.723 1.277,-3.365 2.248,-5.334c0.97,-1.97 2.953,-3.293 2.646,-5.683c-0.266,-2.072 -2.279,-2.749 -3.627,-4.247c-3.025,-3.364 -9.769,-20.392 -16.594,-25.409" stroke="black" stroke-width="0.5" stroke-linecap="round" stroke-linejoin="round"/>
</g>
<g id="Vector_36">
<path d="M55.106,79.765c2.064,1.344 4.332,5.221 5.14,7.509c1.001,2.821 1.665,5.529 2.217,8.473c2.054,10.884 1.39,17.828 5.16,28.414c1.124,0.4 0.736,1.211 1.39,1.959c5.967,6.842 17.156,23.358 18.985,25.696c-2.452,2.339 -4.516,4.299 -7.521,5.858c-5.109,-6.678 -14.806,-18.198 -20.047,-24.66c-9.513,-11.745 -12.916,-24.137 -19.711,-36.949" fill="#2AC426"/>
<path d="M55.106,79.765c2.064,1.344 4.332,5.221 5.14,7.509c1.001,2.821 1.665,5.529 2.217,8.473c2.054,10.884 1.39,17.828 5.16,28.414c1.124,0.4 0.736,1.211 1.39,1.959c5.967,6.842 17.156,23.358 18.985,25.696c-2.452,2.339 -4.516,4.299 -7.521,5.858c-5.109,-6.678 -14.806,-18.198 -20.047,-24.66c-9.513,-11.745 -12.916,-24.137 -19.711,-36.949" stroke="black" stroke-width="0.5" stroke-linecap="round" stroke-linejoin="round"/>
</g>
<path id="Vector_37" d="M51.867,82.391c2.064,1.344 3.505,5.15 4.312,7.427c1.001,2.821 1.666,5.529 2.217,8.473c2.054,10.883 2.218,17.9 5.988,28.486c1.124,0.4 0.736,1.21 1.39,1.959c5.967,6.842 17.156,23.357 18.985,25.696" stroke="black" stroke-width="0.5" stroke-linecap="round" stroke-linejoin="round"/>
<path id="Vector_38" d="M40.78,94.619c-1.042,-3.334 -1.563,-7.345 -1.451,-11.007" stroke="black" stroke-width="0.5" stroke-linecap="round" stroke-linejoin="round"/>
<path id="Vector_39" d="M35.447,82.094c2.932,0.964 6.376,2.123 9.513,2.195c5.17,0.123 8.113,0.677 11.852,-1.303" stroke="black" stroke-width="0.5" stroke-linecap="round" stroke-linejoin="round"/>
<path id="Vector_40" d="M49.476,9.242c-0.623,-4.267 -4.19,-7.272 -8.992,-7.765c-1.052,-0.113 -2.125,-0.113 -3.188,0c-3.29,0.359 -6.376,2.031 -7.633,5.242c-1.236,3.159 -0.766,5.97 -3.699,8.124c0.746,1.18 1.482,1.159 1.696,2.544c0.174,1.139 -0.674,2.708 0.164,3.662c1.206,1.529 6.028,2.195 8.511,2.195c5.784,-0.02 11.404,-4.246 12.875,-9.888c0.378,-1.457 0.46,-2.831 0.266,-4.103z" fill="white"/>
<path id="Vector_41" d="M29.827,9.899c2.288,-0.872 3.995,1.58 3.995,1.58" stroke="black" stroke-width="0.5" stroke-linecap="round" stroke-linejoin="round"/>
<path id="Vector_42" d="M31.165,12.484c-0.163,0.41 -0.511,0.656 -0.766,0.553c-0.256,-0.102 -0.327,-0.523 -0.164,-0.933c0.164,-0.41 0.511,-0.656 0.767,-0.554c0.255,0.103 0.327,0.523 0.163,0.934z" fill="black"/>
<path id="Vector_43" d="M33.955,16.136c0.408,-0.882 0.03,-1.939 -0.859,-2.349c-0.889,-0.411 -1.931,-0.031 -2.34,0.861c-0.408,0.883 -0.03,1.939 0.859,2.349c0.878,0.411 1.931,0.031 2.34,-0.861z" fill="#F2B3B3"/>
<path id="Vector_44" d="M30.194,17.828c-0.807,-0.01 -1.686,-0.123 -2.523,-0.338c0.081,0.831 -0.144,1.149 -0.205,2.051c0.051,0 1.952,0.79 2.718,-1.702z" fill="white" stroke="black" stroke-width="0.5" stroke-linecap="round" stroke-linejoin="round"/>
<path id="Vector_45" d="M43.468,21.049c2.758,-1.785 4.904,-4.513 5.732,-7.703c0.378,-1.457 0.46,-2.832 0.266,-4.104c-0.624,-4.267 -4.19,-7.272 -8.992,-7.765c-1.053,-0.113 -2.126,-0.113 -3.188,0c-3.291,0.359 -6.376,2.031 -7.633,5.242c-1.237,3.159 -0.767,5.97 -3.699,8.124c0.746,1.18 1.481,1.159 1.696,2.544c0.174,1.139 -0.674,2.708 0.164,3.662c0.991,1.252 4.383,1.929 6.938,2.124" stroke="black" stroke-width="0.5" stroke-linecap="round" stroke-linejoin="round"/>
<path id="Vector_46" d="M65.099,80.237c-3.883,3.211 -15.613,8.083 -22.428,9.027c-2.351,-8.924 -9.186,-24.845 -9.84,-33.164c-0.736,-9.427 5.804,-20.967 11.74,-28.055c2.442,4.072 5.375,8.042 7.602,12.258c2.657,5.037 2.994,10.535 3.597,16.115c0.256,2.339 0.358,4.719 0.603,7.088c0.174,1.713 0.368,3.334 0.981,4.945c1.247,3.272 6.131,8.719 7.755,11.776z" fill="white" stroke="black" stroke-width="0.5" stroke-linecap="round" stroke-linejoin="round"/>
<g id="Group_5">
<g id="Group_6">
<path id="Vector_47" d="M23.921,58.439c-1.298,-1.631 -13.233,-14.997 -13.611,-16.002c-0.266,-0.698 -0.255,-4.011 -0.889,-4.863c-0.633,-0.851 -1.4,-2.636 -2.636,-2.41c-0.47,-0.318 -1.063,-1.118 -1.727,-0.359c-0.409,0.472 -0.102,0.892 0.102,1.374c-0.93,-0.266 -1.154,0.975 -0.94,1.6c-0.521,0 -0.776,0.452 -0.95,0.862c-0.082,0.205 0.061,0.421 -0.031,0.616c-0.122,0.246 -0.439,0.307 -0.552,0.564c-0.521,1.169 1.431,3.262 2.167,3.918c0.746,0.667 2.309,1.303 2.902,2.195c1.389,2.083 8.47,14.279 10.698,17.018l5.487,-4.523z" fill="white" stroke="black" stroke-width="0.5" stroke-linecap="round" stroke-linejoin="round"/>
<path id="Vector_48" d="M6.478,34.928c0,0 0.215,0.215 0.45,0.472c0.521,0.595 1.165,1.272 1.645,1.908" stroke="black" stroke-linecap="round" stroke-linejoin="round"/>
<path id="Vector_49" d="M5.048,35.964c0.255,0.4 0.531,0.769 0.817,1.128" stroke="black" stroke-linecap="round" stroke-linejoin="round"/>
<path id="Vector_50" d="M6.754,37.062c0.082,0.194 0.235,0.338 0.358,0.502" stroke="black" stroke-linecap="round" stroke-linejoin="round"/>
<path id="Vector_51" d="M5.15,38.19c0.143,0.205 0.266,0.4 0.47,0.544" stroke="black" stroke-linecap="round" stroke-linejoin="round"/>
<path id="Vector_52" d="M4.046,39.349c0.143,0.154 0.286,0.298 0.44,0.451" stroke="black" stroke-linecap="round" stroke-linejoin="round"/>
<path id="Vector_53" d="M3.157,40.467c0.103,0.195 0.246,0.349 0.44,0.451" stroke="black" stroke-linecap="round" stroke-linejoin="round"/>
</g>
<g id="Group_7">
<path id="Vector_54" d="M8.389,47.34l-0.593,-0.934c2.923,-1.426 3.73,-2.595 3.74,-2.605l0.613,0.944c-0.051,0.061 -0.725,1.128 -3.75,2.595z" fill="white" stroke="black" stroke-width="0.5" stroke-linecap="round" stroke-linejoin="round"/>
<path id="Vector_55" d="M11.209,45.391c-0.112,-0.646 -0.725,-1.077 -1.369,-0.964c-0.644,0.112 -1.073,0.728 -0.961,1.374c0.113,0.646 0.726,1.077 1.37,0.964c0.643,-0.112 1.073,-0.728 0.96,-1.374z" fill="white" stroke="black" stroke-width="0.5" stroke-linecap="round" stroke-linejoin="round"/>
<path id="Vector_56" d="M10.862,45.452c-0.082,-0.461 -0.511,-0.759 -0.971,-0.677c-0.46,0.082 -0.756,0.513 -0.674,0.975c0.081,0.461 0.511,0.759 0.97,0.677c0.46,-0.082 0.757,-0.513 0.675,-0.975z" fill="white" stroke="black" stroke-width="0.5" stroke-linecap="round" stroke-linejoin="round"/>
</g>
</g>
<g id="Vector_57">
<path d="M42.63,39.288c-2.984,1.692 -5.784,5.016 -7.97,7.816c-2.524,3.231 -5.283,7.037 -8.563,9.489c0.082,-0.062 -0.552,-0.349 -0.613,-0.359c-0.562,-0.082 -0.552,-0.072 -0.92,0.307c-0.878,0.062 -8.317,-8.319 -9.196,-9.396c-2.238,-0.051 -4.445,1.426 -5.947,3.621c0,0 5.845,9.796 9.442,15.274c1.154,1.765 2.912,2.524 5.313,2.257c1.216,-0.133 6.151,-3.139 7.163,-3.796c4.026,-2.605 6.601,-4.81 13.518,-10.298" fill="white"/>
<path d="M42.63,39.288c-2.984,1.692 -5.784,5.016 -7.97,7.816c-2.524,3.231 -5.283,7.037 -8.563,9.489c0.082,-0.062 -0.552,-0.349 -0.613,-0.359c-0.562,-0.082 -0.552,-0.072 -0.92,0.307c-0.878,0.062 -8.317,-8.319 -9.196,-9.396c-2.238,-0.051 -4.445,1.426 -5.947,3.621c0,0 5.845,9.796 9.442,15.274c1.154,1.765 2.912,2.524 5.313,2.257c1.216,-0.133 6.151,-3.139 7.163,-3.796c4.026,-2.605 6.601,-4.81 13.518,-10.298" stroke="black" stroke-width="0.5" stroke-linecap="round" stroke-linejoin="round"/>
</g>
<path id="Vector_58" d="M24.523,57.721c-0.255,0.923 -0.439,1.867 -0.511,2.821" stroke="black" stroke-width="0.5" stroke-linecap="round" stroke-linejoin="round"/>
<path id="Vector_59" d="M25.79,57.69c0.143,1.775 0.266,3.488 0.276,5.263" stroke="black" stroke-width="0.5" stroke-linecap="round" stroke-linejoin="round"/>
<path id="Vector_60" d="M38.726,59.065c2.116,-1.785 4.66,-2.39 7.071,-3.652" stroke="black" stroke-width="0.5" stroke-linecap="round" stroke-linejoin="round"/>
<path id="Vector_61" d="M48.035,35.595c-1.103,-1.088 -2.401,-1.98 -3.934,-2.893c-1.42,-0.851 -2.667,-2.021 -3.484,-3.467c-1.615,-2.842 -1.41,-6.35 -0.92,-9.581c0.286,-1.929 0.807,-4.308 0.031,-6.083c-0.491,-1.118 -1.533,-1.672 -2.401,-2.523c-1.002,-0.995 -2.003,-1.98 -3.015,-2.975c-0.848,-0.831 -1.716,-1.713 -2.105,-2.842c-0.388,-1.128 -0.112,-2.574 0.92,-3.159c2.575,-1.457 5.599,-1.857 8.501,-1.334c2.902,0.524 5.661,2.196 7.214,4.709c1.37,2.205 1.932,4.924 1.748,7.519c-0.164,2.236 -0.133,4.749 0.204,6.965c0.48,3.129 1.87,5.026 5.089,5.355c1.675,0.174 4.087,0.943 5.589,1.713c1.502,0.769 2.759,2.277 2.728,3.969c-0.296,-1.231 -1.206,-2.133 -2.391,-2.574c-1.185,-0.441 -2.473,-0.462 -3.74,-0.441c1.635,-0.093 3.045,1.077 3.944,2.451c1.267,1.939 1.37,4.165 1.789,6.37c0.439,2.329 1.594,4.791 3.463,6.299c1.145,0.923 2.647,1.559 4.077,1.22c-0.224,0.288 -0.367,0.431 -0.653,0.657c-0.685,0.523 -1.503,0.841 -2.32,1.108c-1.124,0.369 -2.279,0.687 -3.433,0.923c-1.666,0.349 -3.423,0.554 -5.038,0.031c-2.135,-0.688 -4.261,-1.734 -5.252,-3.867c-0.981,-2.124 -0.848,-4.586 -2.779,-6.217c1.011,1.908 1.39,3.098 0.93,5.201c-0.358,1.621 -1.257,3.231 -2.759,3.929c2.667,-1.241 1.42,-4.924 0.49,-6.904c-0.684,-1.456 -1.512,-2.595 -2.493,-3.57z" fill="black" stroke="black" stroke-linecap="round" stroke-linejoin="round"/>
<path id="Vector_62" d="M39.605,15.92c-1.267,4.185 -2.513,8.76 -0.582,12.771c0.746,1.539 1.931,2.903 3.423,3.918c1.267,0.862 3.443,1.58 4.823,2.298" stroke="black" stroke-linecap="round" stroke-linejoin="round"/>
<g id="Group_8">
<g id="Vector_63">
<path d="M38.982,17.664c1.655,0.062 3.607,-1.713 3.423,-3.498c-0.164,-1.59 -2.248,-1.959 -3.137,-0.718" fill="white"/>
<path d="M38.982,17.664c1.655,0.062 3.607,-1.713 3.423,-3.498c-0.164,-1.59 -2.248,-1.959 -3.137,-0.718" stroke="black" stroke-linecap="round" stroke-linejoin="round"/>
</g>
<path id="Vector_64" d="M39.34,15.397c0.03,-0.975 1.461,-1.108 2.002,-0.472" stroke="black" stroke-linecap="round" stroke-linejoin="round"/>
<path id="Vector_65" d="M39.35,15.274c0.368,-0.472 1.011,0.154 1.083,0.564" stroke="black" stroke-linecap="round" stroke-linejoin="round"/>
</g>
<path id="Vector_66" d="M50.549,10.494c0.061,2.954 0.112,7.826 1.757,10.35c1.87,2.852 5.181,3.026 8.001,1.641" stroke="black" stroke-linecap="round" stroke-linejoin="round"/>
<path id="Vector_67" d="M58.754,27.501c1.604,0.606 2.83,0.934 3.954,2.38c0.879,1.139 1.523,2.657 1.911,4.032c0.777,2.749 1.911,8.709 6.356,6.708" stroke="black" stroke-linecap="round" stroke-linejoin="round"/>
<path id="Vector_68" d="M43.161,61.034c3.198,8.422 5.252,17.798 10.157,25.224" stroke="black" stroke-width="0.5" stroke-linecap="round" stroke-linejoin="round"/>
<path id="Vector_69" d="M52.827,71.949l-8.828,2.749l-0.358,-1.241l8.911,-2.667z" fill="white" stroke="black" stroke-width="0.5" stroke-linecap="round" stroke-linejoin="round"/>
<path id="Vector_70" d="M45.389,28.691c-3.331,-0.646 -6.765,2.359 -9.156,4.288c-2.932,2.359 -5.987,5.59 -9.707,6.637c-3.219,0.902 -7.255,0.615 -9.87,-1.652" stroke="black" stroke-width="0.5" stroke-linecap="round" stroke-linejoin="round"/>
<g id="Group_9">
<path id="Vector_71" d="M18.178,36.969l-3.484,1.703l-10.218,-6.196l3.831,-1.497l9.861,5.98z" fill="white" stroke="black" stroke-width="0.5" stroke-linecap="round" stroke-linejoin="round"/>
<path id="Vector_72" d="M15.572,36.097l-2.064,1.149l-6.406,-3.888l2.401,-0.943z" fill="#2AC426" stroke="black" stroke-width="0.5" stroke-linecap="round" stroke-linejoin="round"/>
<path id="Vector_73" d="M17.309,37.954l-0.694,0.359l-0.389,-0.236l-1.308,-0.79l0.695,-0.369l1.39,0.862z" fill="#2AC426" stroke="black" stroke-width="0.5" stroke-linecap="round" stroke-linejoin="round"/>
</g>
<path id="Vector_74" d="M66.724,125.474c-1.318,0.985 -2.585,2.031 -3.781,3.149" stroke="black" stroke-width="0.5" stroke-linecap="round" stroke-linejoin="round"/>
<path id="Vector_75" d="M14.305,99.912c-1.216,-1.262 -2.564,-3.108 -4.199,-3.929" stroke="black" stroke-width="0.5" stroke-linecap="round" stroke-linejoin="round"/>
<path id="Vector_76" d="M12.609,100.609c-0.96,-0.687 -1.962,-1.282 -3.014,-1.805" stroke="black" stroke-width="0.5" stroke-linecap="round" stroke-linejoin="round"/>
<path id="Vector_77" d="M43.09,95.798c2.38,0.082 4.741,0.37 7.081,0.852" stroke="black" stroke-width="0.5" stroke-linecap="round" stroke-linejoin="round"/>
<path id="Vector_78" d="M39.135,94.844c-1.451,-0.954 -2.84,-2.031 -4.169,-3.139" stroke="black" stroke-width="0.5" stroke-linecap="round" stroke-linejoin="round"/>
</g>
<g id="Group_10">
<path id="Vector_79" d="M4.741,150.37c-1.032,-0.205 -1.502,-1.6 -1.379,-2.379c2.585,-2.914 6.09,-9.366 6.795,-9.961c0.214,-0.184 0.511,-0.236 0.776,-0.143c0.971,0.348 2.32,1.569 1.206,2.472c0,0 -3.116,6.575 -7.408,10.011z" fill="black" stroke="black" stroke-linecap="round" stroke-linejoin="round"/>
<g id="Vector_80">
<path d="M5.559,150.904c-0.583,-0.852 -0.757,-2.318 -0.348,-3.293c0.327,-0.79 4.026,-7.714 4.374,-8.001c0.766,-0.626 1.798,-0.133 2.687,-0.092c1.277,0.051 2.432,-0.359 3.402,-1.221c0.879,-0.79 0.92,-1.97 0.981,-3.17c0.542,-0.143 1.329,0.359 1.717,0.698c1.298,1.138 2.463,2.749 3.198,4.298" fill="black"/>
<path d="M5.559,150.904c-0.583,-0.852 -0.757,-2.318 -0.348,-3.293c0.327,-0.79 4.026,-7.714 4.374,-8.001c0.766,-0.626 1.798,-0.133 2.687,-0.092c1.277,0.051 2.432,-0.359 3.402,-1.221c0.879,-0.79 0.92,-1.97 0.981,-3.17c0.542,-0.143 1.329,0.359 1.717,0.698c1.298,1.138 2.463,2.749 3.198,4.298" stroke="black" stroke-width="0.5" stroke-linecap="round" stroke-linejoin="round"/>
</g>
<path id="Vector_81" d="M5.559,150.904c-0.583,-0.851 -0.757,-2.318 -0.348,-3.293c0.327,-0.79 4.026,-7.714 4.374,-8.001c0.766,-0.626 1.798,-0.133 2.687,-0.092c0.102,0 0.194,0 0.296,0" stroke="white" stroke-width="0.5" stroke-linecap="round" stroke-linejoin="round"/>
<path id="Vector_82" d="M5.099,149.047c-0.205,-0.554 -0.613,-1.498 -1.196,-1.764c-1.481,0.984 -3.106,3.046 -3.392,4.831c0,0 2.493,-0.256 3.535,-0.523c1.073,-0.277 1.472,-1.426 1.053,-2.544z" fill="white" stroke="black" stroke-linecap="round" stroke-linejoin="round"/>
<path id="Vector_83" d="M21.417,139.302c-0.736,0.913 -1.553,1.703 -2.473,2.452c-1.338,1.087 -2.8,2.021 -4.179,3.046c-1.155,0.872 -9.687,6.483 -14.254,7.314c0.061,0.585 0.664,1.252 1.083,1.611c0.511,0.369 5.14,-1.847 6.509,-2.493c3.29,-1.569 5.017,-2.944 7.909,-5.108c2.636,-1.98 3.923,-2.483 6.427,-4.647c0.276,-0.236 -0.675,-1.898 -1.022,-2.175z" fill="white" stroke="black" stroke-linecap="round" stroke-linejoin="round"/>
<path id="Vector_84" d="M8.113,140.359c0.603,0.164 1.911,1.221 1.911,1.221" stroke="white" stroke-width="0.5" stroke-linecap="round" stroke-linejoin="round"/>
<path id="Vector_85" d="M7.367,141.528c0.45,0.205 1.788,1.375 1.788,1.375" stroke="white" stroke-width="0.5" stroke-linecap="round" stroke-linejoin="round"/>
<path id="Vector_86" d="M6.58,142.646c0.47,0.38 1.247,1.17 1.717,1.549" stroke="white" stroke-width="0.5" stroke-linecap="round" stroke-linejoin="round"/>
<path id="Vector_87" d="M5.794,144.031c0,0 1.154,1.19 1.563,1.59" stroke="white" stroke-width="0.5" stroke-linecap="round" stroke-linejoin="round"/>
<path id="Vector_88" d="M4.946,145.406c0,0 0.95,1.179 1.451,1.703" stroke="white" stroke-width="0.5" stroke-linecap="round" stroke-linejoin="round"/>
</g>
<g id="Group_11">
<path id="Vector_89" d="M79.783,174.804c-1.053,-0.092 -1.666,-1.436 -1.615,-2.215c2.269,-3.17 5.078,-9.95 5.722,-10.617c0.194,-0.205 0.48,-0.287 0.756,-0.226c1.002,0.236 2.473,1.313 1.462,2.339c0,0 -2.422,6.862 -6.325,10.73z" fill="black" stroke="black" stroke-width="0.5" stroke-linecap="round" stroke-linejoin="round"/>
<g id="Vector_90">
<path d="M80.641,175.246c-0.674,-0.79 -0.991,-2.226 -0.685,-3.242c0.246,-0.821 3.199,-8.093 3.515,-8.422c0.695,-0.707 1.778,-0.318 2.667,-0.379c1.278,-0.082 2.381,-0.616 3.25,-1.57c0.797,-0.871 0.705,-2.051 0.654,-3.262c0.521,-0.194 1.348,0.216 1.778,0.513c1.41,0.995 2.728,2.472 3.627,3.939" fill="black"/>
<path d="M80.641,175.246c-0.674,-0.79 -0.991,-2.226 -0.685,-3.242c0.246,-0.821 3.199,-8.093 3.515,-8.422c0.695,-0.707 1.778,-0.318 2.667,-0.379c1.278,-0.082 2.381,-0.616 3.25,-1.57c0.797,-0.871 0.705,-2.051 0.654,-3.262c0.521,-0.194 1.348,0.216 1.778,0.513c1.41,0.995 2.728,2.472 3.627,3.939" stroke="black" stroke-linecap="round" stroke-linejoin="round"/>
</g>
<path id="Vector_91" d="M80.641,175.246c-0.674,-0.79 -0.991,-2.226 -0.685,-3.242c0.246,-0.82 3.199,-8.093 3.515,-8.421c0.695,-0.708 1.778,-0.318 2.667,-0.38c0.102,0 0.194,-0.01 0.297,-0.031" stroke="white" stroke-width="0.5" stroke-linecap="round" stroke-linejoin="round"/>
<path id="Vector_92" d="M79.997,173.44c-0.265,-0.533 -0.766,-1.426 -1.369,-1.621c-1.369,1.129 -2.769,3.355 -2.871,5.16c0,0 2.452,-0.513 3.453,-0.892c1.043,-0.39 1.319,-1.57 0.787,-2.647z" fill="white" stroke="black" stroke-linecap="round" stroke-linejoin="round"/>
<path id="Vector_93" d="M95.212,162.044c-0.634,0.985 -1.369,1.857 -2.207,2.698c-1.216,1.22 -2.575,2.298 -3.842,3.477c-1.063,0.985 -8.961,7.468 -13.417,8.771c0.123,0.584 0.797,1.179 1.247,1.487c0.542,0.318 4.915,-2.369 6.213,-3.159c3.106,-1.898 4.68,-3.447 7.326,-5.909c2.422,-2.246 3.648,-2.872 5.906,-5.293c0.245,-0.267 -0.869,-1.816 -1.247,-2.052z" fill="white" stroke="black" stroke-linecap="round" stroke-linejoin="round"/>
<path id="Vector_94" d="M82.092,164.485c0.623,0.103 2.023,1.016 2.023,1.016" stroke="white" stroke-width="0.5" stroke-linecap="round" stroke-linejoin="round"/>
<path id="Vector_95" d="M81.469,165.726c0.459,0.154 1.921,1.18 1.921,1.18" stroke="white" stroke-width="0.5" stroke-linecap="round" stroke-linejoin="round"/>
<path id="Vector_96" d="M80.804,166.926c0.501,0.329 1.359,1.036 1.87,1.365" stroke="white" stroke-width="0.5" stroke-linecap="round" stroke-linejoin="round"/>
<path id="Vector_97" d="M80.171,168.383c0,0 1.277,1.067 1.727,1.426" stroke="white" stroke-width="0.5" stroke-linecap="round" stroke-linejoin="round"/>
<path id="Vector_98" d="M79.466,169.84c0,0 1.073,1.077 1.614,1.539" stroke="white" stroke-width="0.5" stroke-linecap="round" stroke-linejoin="round"/>
</g>
</g></svg>