<svg viewBox="0 0 110 59.3651" fill="none" xmlns="http://www.w3.org/2000/svg" xmlns:xlink="http://www.w3.org/1999/xlink" x="0" y="0"><defs><clipPath id="clip0_44_172">
<rect width="110" height="59.3651" fill="white" transform="translate(0, 0)"/>
</clipPath></defs><g id="Layer_1" clip-path="url(#clip0_44_172)">
<g id="Group">
<path id="Vector" d="M17.49,59.3143h-0.948v-11.6738h0.948z" fill="currentColor"/>
<path id="Vector_2" d="M25.102,49.9975c0.016,0.6249 0.35,1.0786 1.004,1.3609c0.509,0.2252 1.27,0.3458 2.271,0.3902v1.18c-0.881,-0.0285 -1.62,-0.1173 -2.204,-0.2664c-0.91,-0.2316 -1.536,-0.6186 -1.883,-1.1515c-0.347,0.5329 -0.982,0.9167 -1.905,1.1515c-0.594,0.1491 -1.32,0.2347 -2.173,0.2664v-1.18c0.998,-0.0318 1.756,-0.1618 2.274,-0.3902c0.651,-0.2823 0.983,-0.7391 1.008,-1.3609h-3.282v-1.2054h8.165v1.2054h-3.278zM23.684,58.6577v-3.1976h-3.778v-1.2055h8.79v1.2055h-3.803v3.1976z" fill="currentColor"/>
<path id="Vector_3" d="M32.061,59.3143h-0.951v-11.6738h0.951z" fill="currentColor"/>
<path id="Vector_4" d="M38.175,47.8499v2.8011h8.244v1.4179h-8.878c-0.294,0 -0.506,-0.0793 -0.632,-0.222c-0.139,-0.1681 -0.206,-0.4505 -0.206,-0.847v-3.1532h1.472zM40.813,59.3048v-3.6195h-4.492v-1.437h10.455v1.437h-4.523v3.6195z" fill="currentColor"/>
<path id="Vector_5" d="M57.134,56.9669h-7.407c-0.297,0 -0.509,-0.0761 -0.641,-0.2316c-0.149,-0.1681 -0.225,-0.4473 -0.225,-0.8406v-4.3047h4.514v-1.9668h-4.514v-1.4148h5.951v4.7995h-4.504v2.5505h6.829M57.134,55.1968v-7.6134h1.446v11.7785h-1.446v-2.7503" fill="currentColor"/>
<path id="Vector_6" d="M66.578,48.2306c0.679,0.6408 1.02,1.4528 1.02,2.4489c0,0.9961 -0.341,1.7828 -1.02,2.4173c-0.644,0.6059 -1.39,0.9009 -2.252,0.9009c-0.862,0 -1.633,-0.295 -2.261,-0.9009c-0.667,-0.6218 -1.005,-1.4307 -1.005,-2.4173c0,-0.9865 0.335,-1.8113 1.005,-2.4489c0.628,-0.5964 1.38,-0.8978 2.261,-0.8978c0.881,0 1.608,0.3014 2.252,0.8978zM63.104,49.3567c-0.379,0.3616 -0.566,0.7994 -0.566,1.326c0,0.5266 0.187,0.939 0.566,1.2943c0.347,0.3489 0.758,0.5266 1.222,0.5266c0.442,0 0.843,-0.1745 1.2,-0.5266c0.386,-0.3553 0.578,-0.7899 0.578,-1.2943c0,-0.5044 -0.192,-0.9548 -0.578,-1.326c-0.357,-0.3489 -0.758,-0.5234 -1.2,-0.5234c-0.464,0 -0.875,0.1745 -1.222,0.5234zM69.803,47.5771h1.444v7.8861h-1.444zM61.989,54.5972h1.446v2.6393h7.888v1.4148h-8.485c-0.293,0 -0.502,-0.0793 -0.631,-0.2347c-0.149,-0.1681 -0.221,-0.4346 -0.221,-0.7962v-3.0232z" fill="currentColor"/>
<path id="Vector_7" d="M82.261,52.9001h1.418v1.4148h-3.936v2.8709h4.52v1.4243h-10.449v-1.4243h4.52v-2.8709h-3.96v-1.4148h1.456v-3.2991h-1.456v-1.418h9.305v1.418h-1.418zM77.235,49.6041v3.2992h3.614v-3.2992z" fill="currentColor"/>
<path id="Vector_8" d="M92.422,47.8848c0,1.3609 0.379,2.4267 1.118,3.1913c0.67,0.6788 1.772,1.2657 2.96,1.4021v1.5734c-0.973,-0.0952 -2.025,-0.5456 -2.821,-1.0183c-0.938,-0.5329 -1.626,-1.2498 -2.065,-2.1507c-0.443,0.9072 -1.134,1.6336 -2.072,2.1666c-0.8,0.4473 -2.028,0.8692 -2.998,0.9707v-1.5608c1.184,-0.1459 2.467,-0.7137 3.149,-1.3989c0.752,-0.7645 1.125,-1.824 1.125,-3.1754zM96.857,57.1826v1.4275h-10.461v-1.4275z" fill="currentColor"/>
</g>
<g id="Group_2">
<path id="Vector_9" d="M2.732,30.2028v10.757h-2.732v-14.846h3.042l6.105,10.868v-10.868h2.761v14.846h-3.061z" fill="currentColor"/>
<path id="Vector_10" d="M15.528,36.0619v-9.945h2.767v10.0338c-0.016,1.6622 1.001,2.5822 2.334,2.5346c1.061,-0.0254 2.113,-0.9168 2.145,-2.5029l0.012,-0.9516v-9.117h2.748v10.1797c-0.012,3.1183 -2.748,5.0501 -4.949,5.0501c-2.202,0 -4.991,-1.529 -5.054,-5.2849z" fill="currentColor"/>
<path id="Vector_11" d="M34.237,26.1169c3.499,0 5.009,2.4205 5.019,4.7108c0.031,1.8113 -1.182,3.8574 -3.219,4.4792l-0.594,0.1776l3.999,5.488l-3.345,-0.0064l-3.876,-5.6434v5.6403h-2.792l-0.012,-14.8461zM33.763,33.1847c1.465,0 1.996,-0.3712 2.454,-0.9961c0.354,-0.5044 0.625,-1.9256 -0.325,-2.7599c-0.37,-0.3267 -0.784,-0.6376 -1.624,-0.6376h-2.072v4.3936z" fill="currentColor"/>
<path id="Vector_12" d="M42.796,26.1169h2.704v14.8461h-2.704z" fill="currentColor"/>
<g id="Group_3">
<path id="Vector_13" d="M52.585,19.1507h-2.688v21.8218h2.688z" fill="currentColor"/>
<path id="Vector_14" d="M59.765,30.2028v10.7697h-2.736v-14.8556h3.045l6.106,10.8681v-10.8681h2.764v14.8461h-3.058l-6.118,-10.7571z" fill="currentColor"/>
<path id="Vector_15" d="M72.832,26.1169h7.59v2.6742h-4.814v3.4165h4.539v2.6679h-4.539v6.0875h-2.776z" fill="currentColor"/>
<path id="Vector_16" d="M98.449,33.4512c0.06,4.292 -3.472,7.8956 -7.742,7.8956c-4.271,0 -7.742,-3.5053 -7.758,-7.7751c-0.016,-4.3364 3.636,-7.9147 7.947,-7.81c4.173,0.0888 7.512,3.4894 7.553,7.6895zM85.7,33.7938c0.117,2.6868 2.319,4.79 5.007,4.7805c2.773,-0.0159 5.054,-2.4014 4.95,-5.1961c-0.092,-2.6234 -2.114,-4.7013 -4.729,-4.8218c-2.865,-0.1427 -5.36,2.3601 -5.228,5.2405z" fill="currentColor"/>
<path id="Vector_17" d="M105.24,41.3151c-3.519,-0.0159 -4.71,-3.039 -4.729,-4.2445v-0.2823h2.84v0.2411c-0.016,0.7867 0.9,1.602 1.857,1.6337c1.071,0.0444 2.116,-0.7455 2.056,-1.9922c-0.091,-1.6019 -1.554,-2.0873 -3.161,-2.6107c-2.057,-0.6662 -3.137,-2.284 -3.017,-4.3174c0.133,-2.211 1.933,-3.905 4.151,-3.9367c2.185,-0.0444 4.21,1.7098 4.374,4.0065l0.016,0.2569h-2.821l-0.012,-0.2379c-0.044,-0.6249 -0.698,-1.4021 -1.643,-1.3831c-0.884,0.0127 -1.405,0.7994 -1.434,1.3546c-0.085,1.437 0.888,1.7193 2.587,2.3411c0.891,0.3109 3.604,1.2181 3.693,4.3618c0.079,2.5822 -2.012,4.825 -4.757,4.8091z" fill="currentColor"/>
</g>
<g id="Group_4">
<path id="Vector_18" d="M42.547,0h-2.685v2.6964h2.685z" fill="currentColor"/>
<path id="Vector_19" d="M62.633,0h-2.682v2.6964h2.682z" fill="currentColor"/>
<path id="Vector_20" d="M52.585,0h-2.688v2.6964h2.688z" fill="currentColor"/>
<path id="Vector_21" d="M42.547,9.6023h-2.685v2.6933h2.685z" fill="currentColor"/>
<path id="Vector_22" d="M62.633,9.6023h-2.682v2.6933h2.682z" fill="currentColor"/>
<path id="Vector_23" d="M52.585,9.6023h-2.688v2.6933h2.688z" fill="currentColor"/>
<path id="Vector_24" d="M42.547,19.2237h-2.685v2.6932h2.685z" fill="currentColor"/>
<path id="Vector_25" d="M62.633,19.2237h-2.682v2.6932h2.682z" fill="currentColor"/>
</g>
</g>
</g></svg>