<svg width="30" height="30" viewBox="0 0 30 30" fill="none" xmlns="http://www.w3.org/2000/svg">
<path d="M8.75 27.5H21.25" stroke="black" stroke-width="2" stroke-linecap="round" stroke-linejoin="round"/>
<path d="M2.5 21.25V5C2.5 4.33696 2.76339 3.70107 3.23223 3.23223C3.70107 2.76339 4.33696 2.5 5 2.5H25C25.663 2.5 26.2989 2.76339 26.7678 3.23223C27.2366 3.70107 27.5 4.33696 27.5 5V21.25C27.5 21.913 27.2366 22.5489 26.7678 23.0178C26.2989 23.4866 25.663 23.75 25 23.75H5C4.33696 23.75 3.70107 23.4866 3.23223 23.0178C2.76339 22.5489 2.5 21.913 2.5 21.25Z" stroke="black" stroke-width="2"/>
<path d="M11.25 13.125L13.75 15.625L18.75 10.625" stroke="black" stroke-width="2" stroke-linecap="round" stroke-linejoin="round"/>
</svg>
