<svg viewBox="0 0 117.0002 1" fill="none" xmlns="http://www.w3.org/2000/svg" xmlns:xlink="http://www.w3.org/1999/xlink" x="0" y="0"><g id="Frame 1010106702_5">
<path id="Line 1_4" d="M0,-6c0,1402 0,2172 0,3574" stroke="#CCCCCC"/>
<path id="Line 2_4" d="M0,250.2c0,0 0,-675.8 0,167.8" stroke="#312CBF"/>
<g id="Frame 1010106703_5">
<circle id="Ellipse 3_7" cx="0" cy="421" r="9" fill="#312CBF" fill-opacity="0.2"/>
<circle id="Ellipse 2_7" cx="0" cy="421" r="4.5" fill="white" stroke="#312CBF"/>
</g>
<g id="Frame 1010106704_5">
<circle id="Ellipse 3_8" cx="0" cy="131" r="9" fill="#312CBF" fill-opacity="0.2"/>
<circle id="Ellipse 2_8" cx="0" cy="131" r="4.5" fill="white" stroke="#312CBF"/>
</g>
<circle id="Ellipse 4_4" cx="0" cy="709" r="4.5" fill="white" stroke="#CCCCCC"/>
<circle id="Ellipse 5_4" cx="0" cy="999" r="4.5" fill="white" stroke="#CCCCCC"/>
<circle id="Ellipse 6_4" cx="0" cy="1289" r="4.5" fill="white" stroke="#CCCCCC"/>
<circle id="Ellipse 7_4" cx="0" cy="1579" r="4.5" fill="white" stroke="#CCCCCC"/>
<circle id="Ellipse 8_3" cx="0" cy="1869" r="4.5" fill="white" stroke="#CCCCCC"/>
<circle id="Ellipse 9_3" cx="0" cy="2159" r="4.5" fill="white" stroke="#CCCCCC"/>
<circle id="Ellipse 10_3" cx="0" cy="2449" r="4.5" fill="white" stroke="#CCCCCC"/>
<circle id="Ellipse 11_3" cx="0" cy="2739" r="4.5" fill="white" stroke="#CCCCCC"/>
<circle id="Ellipse 12" cx="0" cy="3029" r="4.5" fill="white" stroke="#CCCCCC"/>
<circle id="Ellipse 13" cx="0" cy="3319" r="4.5" fill="white" stroke="#CCCCCC"/>
</g></svg>