<?xml version="1.0" encoding="UTF-8"?>
<svg id="_레이어_1" data-name="레이어_1" xmlns="http://www.w3.org/2000/svg" version="1.1" viewBox="0 0 110 59.4">
  <!-- Generator: Adobe Illustrator 29.1.0, SVG Export Plug-In . SVG Version: 2.1.0 Build 142)  -->
  <defs>
    <style>
      .st0 {
        fill: #af1d36;
      }

      .st1 {
        fill: #231815;
      }

      .st2 {
        fill: #8dad79;
      }
    </style>
  </defs>
  <g>
    <path class="st1" d="M18.3,58.8h-.9v-11.4h.9v11.4Z"/>
    <path class="st1" d="M25.7,49.6c0,.6.3,1.1,1,1.3.5.2,1.2.3,2.2.4v1.2c-.9,0-1.6-.1-2.2-.3-.9-.2-1.5-.6-1.9-1.1-.3.5-1,.9-1.9,1.1-.6.1-1.3.2-2.1.3v-1.2c1,0,1.7-.2,2.2-.4.6-.3,1-.7,1-1.3h-3.2v-1.2h8v1.2h-3.2ZM24.4,58.1v-3.1h-3.7v-1.2h8.6v1.2h-3.7v3.1h-1.2Z"/>
    <path class="st1" d="M32.6,58.8h-.9v-11.4h.9v11.4Z"/>
    <path class="st1" d="M38.6,47.5v2.7h8.1v1.4h-8.7c-.3,0-.5,0-.6-.2-.1-.2-.2-.4-.2-.8v-3.1h1.4ZM41.2,58.7v-3.5h-4.4v-1.4h10.3v1.4h-4.4v3.5h-1.4Z"/>
    <path class="st1" d="M57.3,56.5h-7.3c-.3,0-.5,0-.6-.2-.1-.2-.2-.4-.2-.8v-4.2h4.4v-1.9h-4.4v-1.4h5.9v4.7h-4.4v2.5h6.7M57.3,54.7v-7.5h1.4v11.5h-1.4v-2.7"/>
    <path class="st1" d="M66.5,47.9c.7.6,1,1.4,1,2.4s-.3,1.7-1,2.4c-.6.6-1.4.9-2.2.9s-1.6-.3-2.2-.9c-.7-.6-1-1.4-1-2.4s.3-1.8,1-2.4c.6-.6,1.4-.9,2.2-.9s1.6.3,2.2.9ZM63.1,49c-.4.4-.6.8-.6,1.3s.2.9.6,1.3c.3.3.7.5,1.2.5s.8-.2,1.2-.5c.4-.3.6-.8.6-1.3s-.2-.9-.6-1.3c-.4-.3-.7-.5-1.2-.5s-.9.2-1.2.5ZM69.7,47.3h1.4v7.7h-1.4v-7.7ZM62,54.1h1.4v2.6h7.8v1.4h-8.3c-.3,0-.5,0-.6-.2-.1-.2-.2-.4-.2-.8v-3Z"/>
    <path class="st1" d="M82,52.5h1.4v1.4h-3.9v2.8h4.4v1.4h-10.3v-1.4h4.4v-2.8h-3.9v-1.4h1.4v-3.2h-1.4v-1.4h9.2v1.4h-1.4v3.2ZM77,49.2v3.2h3.6v-3.2h-3.6Z"/>
    <path class="st1" d="M92,47.6c0,1.3.4,2.4,1.1,3.1.7.7,1.7,1.2,2.9,1.4v1.5c-1,0-2-.5-2.8-1-.9-.5-1.6-1.2-2-2.1-.4.9-1.1,1.6-2,2.1-.8.4-2,.9-2.9,1v-1.5c1.2-.1,2.4-.7,3.1-1.4.7-.7,1.1-1.8,1.1-3.1h1.6ZM96.3,56.7v1.4h-10.3v-1.4h10.3Z"/>
  </g>
  <g>
    <path class="st1" d="M3.7,30.2v10.5H1.1v-14.5h3l6,10.6v-10.6h2.7v14.5h-3l-6-10.5Z"/>
    <path class="st1" d="M16.3,36v-9.7h2.7v9.8c0,1.6,1,2.5,2.3,2.5,1,0,2.1-.9,2.1-2.5v-.9s0-8.9,0-8.9h2.7v10c0,3.1-2.7,4.9-4.9,4.9s-4.9-1.5-5-5.2Z"/>
    <path class="st1" d="M34.7,26.2c3.4,0,4.9,2.4,4.9,4.6,0,1.8-1.2,3.8-3.2,4.4l-.6.2,3.9,5.4h-3.3s-3.8-5.5-3.8-5.5v5.5h-2.7v-14.5s4.7,0,4.7,0ZM34.3,33.2c1.4,0,2-.4,2.4-1,.3-.5.6-1.9-.3-2.7-.4-.3-.8-.6-1.6-.6h-2v4.3h1.5Z"/>
    <path class="st1" d="M43.1,26.2h2.7v14.5h-2.7v-14.5Z"/>
    <g>
      <rect class="st0" x="50.1" y="19.4" width="2.6" height="21.4"/>
      <path class="st0" d="M59.8,30.2v10.5h-2.7v-14.5h3l6,10.6v-10.6h2.7v14.5h-3l-6-10.5Z"/>
      <path class="st0" d="M72.7,26.2h7.5v2.6h-4.7v3.3h4.5v2.6h-4.5v6h-2.7v-14.5Z"/>
      <path class="st0" d="M97.9,33.4c0,4.2-3.4,7.7-7.6,7.7s-7.6-3.4-7.6-7.6c0-4.2,3.6-7.8,7.8-7.6,4.1,0,7.4,3.4,7.4,7.5ZM85.3,33.8c.1,2.6,2.3,4.7,4.9,4.7,2.7,0,5-2.4,4.9-5.1,0-2.6-2.1-4.6-4.7-4.7-2.8-.1-5.3,2.3-5.1,5.1Z"/>
      <path class="st0" d="M104.6,41.1c-3.5,0-4.6-3-4.7-4.2v-.3h2.8v.2c0,.8.9,1.6,1.8,1.6,1.1,0,2.1-.7,2-2,0-1.6-1.5-2-3.1-2.6-2-.7-3.1-2.2-3-4.2.1-2.2,1.9-3.8,4.1-3.9,2.2,0,4.1,1.7,4.3,3.9v.3s-2.8,0-2.8,0v-.2c0-.6-.7-1.4-1.6-1.4-.9,0-1.4.8-1.4,1.3,0,1.4.9,1.7,2.5,2.3.9.3,3.5,1.2,3.6,4.3,0,2.5-2,4.7-4.7,4.7Z"/>
    </g>
    <g>
      <rect class="st2" x="40.3" y=".7" width="2.6" height="2.6"/>
      <rect class="st2" x="60" y=".7" width="2.6" height="2.6"/>
      <rect class="st2" x="50.1" y=".7" width="2.6" height="2.6"/>
      <rect class="st2" x="40.3" y="10.1" width="2.6" height="2.6"/>
      <rect class="st2" x="60" y="10.1" width="2.6" height="2.6"/>
      <rect class="st2" x="50.1" y="10.1" width="2.6" height="2.6"/>
      <rect class="st2" x="40.3" y="19.5" width="2.6" height="2.6"/>
      <rect class="st2" x="60" y="19.5" width="2.6" height="2.6"/>
    </g>
  </g>
</svg>